<?xml version="1.0" standalone="no"?>
<!DOCTYPE svg PUBLIC "-//W3C//DTD SVG 1.1//EN" "http://www.w3.org/Graphics/SVG/1.1/DTD/svg11.dtd" >
<svg>
<metadata>
Created by FontForge 20110222 at Wed Feb 12 15:57:58 2014
 By deploy user
Copyright (c) 1990-2001 ParaType, Inc. All Rights Reserved. Franklin Gothic is a registered trade mark of International Typeface Corporation.
</metadata>
<defs>
<font id="FranklinGothicDemiCondC" horiz-adv-x="527" >
  <font-face 
    font-family="FranklinGothicDemiCondC"
    font-weight="400"
    font-stretch="normal"
    units-per-em="1000"
    panose-1="2 0 5 6 5 0 0 2 0 4"
    ascent="800"
    descent="-200"
    x-height="510"
    cap-height="686"
    bbox="-29 -186 863 904"
    underline-thickness="50"
    underline-position="-50"
    unicode-range="U+0020-F6D4"
  />
<missing-glyph horiz-adv-x="233" 
 />
    <glyph glyph-name=".notdef" horiz-adv-x="233" 
 />
    <glyph glyph-name=".null" horiz-adv-x="0" 
 />
    <glyph glyph-name="nonmarkingreturn" horiz-adv-x="233" 
 />
    <glyph glyph-name="space" unicode=" " horiz-adv-x="233" 
 />
    <glyph glyph-name="numbersign" unicode="#" horiz-adv-x="526" 
d="M204 295h102l17 110h-102zM263 686l-29 -199h101l30 199h89l-30 -199h92l-12 -82h-93l-17 -110h93l-12 -84h-93l-32 -211h-89l32 211h-102l-32 -211h-88l31 211h-92l13 84h92l17 110h-92l12 82h92l31 199h88z" />
    <glyph glyph-name="dollar" unicode="$" 
d="M302 743v-72q31 -2 57.5 -14t47.5 -29q5 -4 13.5 -12.5t18 -21t18 -30t14.5 -39.5l-107 -44q-3 8 -10.5 25t-16.5 30q-24 35 -70 35q-19 0 -33 -7t-23 -17q-16 -18 -16 -49q0 -20 10 -31t24 -19q24 -15 46.5 -22t48.5 -16q35 -12 69 -31.5t58 -47.5q18 -21 28.5 -48
t10.5 -65q0 -48 -17 -85.5t-43 -61.5q-29 -26 -64.5 -37.5t-63.5 -14.5v-93h-77v93q-26 2 -55 11.5t-54 29.5q-30 23 -50.5 59t-28.5 76l120 31q1 -8 5 -25t18 -36q16 -22 35.5 -31t44.5 -9q31 0 47.5 7t24.5 15q10 10 15 24.5t5 26.5q0 14 -7.5 31t-31.5 31q-9 6 -18 9
l-21 7t-27.5 9t-38.5 14q-15 6 -32.5 14t-35 19t-33 26t-26.5 36q-10 18 -15.5 40t-5.5 45q0 48 17 87.5t46 63.5q21 18 48 28.5t54 12.5v73z" />
    <glyph glyph-name="percent" unicode="%" horiz-adv-x="686" 
d="M521 273q-13 0 -20.5 -7t-11 -18t-5 -25t-1.5 -28v-22v-22q0 -14 1.5 -28t5 -25t11 -18t20.5 -7q24 0 30 22.5t8 55.5v22v22q-2 33 -8 55.5t-30 22.5zM521 350q17 0 40.5 -5.5t44.5 -24.5t36 -54t15 -93q0 -29 -5.5 -60t-20.5 -56.5t-41.5 -42.5t-68.5 -17
q-39 0 -65 15.5t-42 40.5t-22.5 56.5t-6.5 63.5q0 54 13.5 88.5t34 54t44 27t44.5 7.5zM545 686l-324 -686h-78l323 686h79zM165 613q-13 0 -20.5 -7t-11.5 -18t-5.5 -25t-1.5 -28v-21v-23q0 -14 1.5 -28t5.5 -25t11.5 -18t20.5 -7q25 0 31.5 28.5t6.5 72.5q0 21 -1 39
t-5 31.5t-11.5 21t-20.5 7.5zM165 690q24 0 48 -8.5t43.5 -28.5t31.5 -54t12 -85q0 -38 -7.5 -70t-24 -56t-42 -37.5t-61.5 -13.5t-62 13.5t-42.5 37.5t-24 56.5t-7.5 69.5q0 51 12 84.5t31.5 54t44 29t48.5 8.5z" />
    <glyph glyph-name="ampersand" unicode="&#x26;" horiz-adv-x="667" 
d="M261 311q-14 -8 -26 -19t-20 -22q-10 -14 -16.5 -30.5t-6.5 -36.5q0 -25 8 -46.5t24 -33.5q12 -10 32 -15t39 -5q23 0 46.5 10t43.5 30zM320 447q6 3 17.5 10t22.5 21q12 15 16.5 31.5t4.5 33.5q0 9 -3 20.5t-11 20.5q-15 15 -40 15q-10 0 -20 -4t-16 -9q-7 -6 -11.5 -16
t-4.5 -21q0 -13 7 -37t38 -65zM638 372q-4 -19 -10.5 -44.5t-23.5 -65.5q-17 -41 -31 -65.5t-28 -43.5q5 -5 13 -11.5t17 -12t18.5 -9.5t18.5 -4q4 0 7 0.5t7 0.5h12v-117q-27 -7 -56 -7q-23 0 -42.5 6t-35.5 15.5t-28.5 21t-22.5 22.5q-48 -40 -93 -54.5t-89 -14.5
q-53 0 -94.5 15t-67.5 39q-28 25 -44.5 62.5t-16.5 82.5q0 72 39.5 121t116.5 81q-36 48 -49.5 83t-13.5 60q0 33 13.5 67.5t48.5 60.5q26 19 58.5 27.5t61.5 8.5q32 0 66 -11t58 -33q25 -23 37.5 -57.5t12.5 -69.5q0 -38 -15.5 -65t-37.5 -48q-19 -18 -35.5 -28.5
t-30.5 -16.5l95 -127q8 14 16.5 32.5t16.5 42.5t13 43t7 33z" />
    <glyph glyph-name="quotesingle" unicode="'" horiz-adv-x="356" 
d="M245 686l-20 -302h-94l-20 302h134z" />
    <glyph glyph-name="parenleft" unicode="(" horiz-adv-x="354" 
d="M289 686q-23 -41 -42.5 -92.5t-33.5 -108t-21.5 -115t-7.5 -113.5t7.5 -113.5t21.5 -115t33.5 -108t42.5 -92.5h-111q-33 48 -56.5 100.5t-38.5 107.5t-22.5 111t-7.5 110q0 49 7 105t22 112t39 110.5t57 101.5h111z" />
    <glyph glyph-name="parenright" unicode=")" horiz-adv-x="354" 
d="M65 -172q24 42 43 93.5t32.5 107t21 114t7.5 114.5t-7.5 114.5t-21 114t-32.5 107t-43 93.5h111q33 -47 56.5 -101t39 -110.5t22.5 -112.5t7 -105q0 -39 -5 -89.5t-19 -107.5t-38.5 -116.5t-62.5 -115.5h-111z" />
    <glyph glyph-name="asterisk" unicode="*" horiz-adv-x="528" 
d="M307 686l-13 -126l105 70l41 -76l-111 -50l111 -50l-41 -77l-105 71l13 -127h-86l13 127l-104 -71l-42 77l112 50l-112 50l42 76l104 -70l-13 126h86z" />
    <glyph glyph-name="plus" unicode="+" horiz-adv-x="529" 
d="M475 397v-108h-154v-157h-114v157h-153v108h153v157h114v-156z" />
    <glyph glyph-name="comma" unicode="," horiz-adv-x="267" 
d="M204 152v-138l-86 -177h-55l66 163h-66v152h141z" />
    <glyph glyph-name="glyph14" unicode="-" horiz-adv-x="283" 
d="M244 316v-111h-205v111h205z" />
    <glyph glyph-name="glyph14" unicode="&#xad;" horiz-adv-x="283" 
d="M244 316v-111h-205v111h205z" />
    <glyph glyph-name="period" unicode="." horiz-adv-x="267" 
d="M204 152v-152h-141v152h141z" />
    <glyph glyph-name="slash" unicode="/" horiz-adv-x="545" 
d="M494 686l-419 -858h-95l418 858h96z" />
    <glyph glyph-name="zero" unicode="0" 
d="M263 587q-32 0 -48 -27q-6 -10 -10 -25t-7 -40t-4 -62t-1 -90q0 -52 1 -89t4 -62.5t7 -41t10 -24.5q10 -15 22 -20.5t26 -5.5q32 0 48 26q6 9 10 22t7 37t4.5 61.5t1.5 96.5q0 58 -2 96t-5 62.5t-7 37.5t-8 21q-11 17 -23.5 22t-25.5 5zM263 697q17 0 36 -2t39 -8t40 -18
t39 -32q27 -29 42 -68.5t22.5 -80.5t9 -79.5t1.5 -65.5t-1.5 -65.5t-9 -79.5t-22.5 -80.5t-42 -68.5q-19 -20 -39 -32t-40 -18t-39 -8t-36 -2t-35.5 2t-38.5 8t-40 18t-39 32q-27 29 -42 68.5t-22.5 80.5t-9 79.5t-1.5 65.5t1.5 65.5t9 79.5t22.5 80.5t42 68.5q19 20 39 32
t40 18t38.5 8t35.5 2z" />
    <glyph glyph-name="one" unicode="1" horiz-adv-x="529" 
d="M370 692v-580h114v-112h-380v112h116v404q-28 -27 -55.5 -47.5t-60.5 -37.5v134q45 24 80.5 52.5t71.5 74.5h114z" />
    <glyph glyph-name="two" unicode="2" horiz-adv-x="526" 
d="M29 472q3 34 17 75.5t43 76.5q20 24 41.5 38t43 22t42.5 10.5t40 2.5q57 0 93 -15.5t56 -32.5q29 -26 47 -67t18 -89q0 -46 -21.5 -97t-64.5 -99q-17 -19 -40.5 -40t-50.5 -42.5t-55.5 -42t-55.5 -38.5h296l-10 -134h-439v134q17 14 40.5 35t50 45t53.5 50.5t51 51.5
q15 16 30.5 34.5t28 39t20.5 44t8 49.5q0 16 -2.5 33.5t-10.5 29.5q-6 10 -18 19t-32 9q-18 0 -33.5 -9t-24.5 -24q-5 -7 -8.5 -19t-6.5 -26t-5.5 -28t-3.5 -24z" />
    <glyph glyph-name="three" unicode="3" 
d="M32 520q5 21 19 51.5t40 58.5q37 39 80 53t88 14q24 0 59 -6t70 -29q35 -24 54 -60t19 -87q0 -27 -6.5 -53t-26.5 -52q-10 -13 -26.5 -26.5t-42.5 -23.5q23 -6 44 -18.5t36.5 -33t25 -48t9.5 -61.5q0 -17 -2 -36.5t-8.5 -40t-18.5 -41t-32 -38.5q-23 -21 -62 -37.5
t-97 -16.5q-42 0 -74 9t-53.5 20.5t-34 22t-16.5 14.5q-14 15 -24.5 33t-17.5 36.5t-11 36t-6 31.5l133 23q1 -14 5.5 -33t13.5 -33q14 -21 32 -28.5t38 -7.5q17 0 31.5 4.5t28.5 20.5t17 32t3 31q0 17 -3.5 36.5t-17.5 35.5q-17 18 -39.5 22.5t-44.5 4.5h-42v111h50
q16 0 36.5 4t36.5 24q11 14 13.5 31.5t2.5 35.5q0 13 -4 26.5t-12 23.5t-21 17t-33 7q-25 0 -38.5 -10.5t-18.5 -18.5q-3 -4 -8 -15.5t-12 -39.5z" />
    <glyph glyph-name="four" unicode="4" horiz-adv-x="526" 
d="M285 553l-152 -283h152v283zM424 697v-419h76v-116h-76v-162h-151v162h-247v116l233 419h165z" />
    <glyph glyph-name="five" unicode="5" 
d="M456 686l-15 -134h-242l-9 -155q14 21 42.5 40t76.5 19q40 0 70 -13.5t52 -34.5q20 -20 32 -41.5t18.5 -44.5t8.5 -46t2 -45q0 -45 -12 -93.5t-53 -88.5q-26 -25 -66 -42.5t-99 -17.5q-65 0 -107 21.5t-65 47.5q-22 24 -36.5 56t-18.5 69l137 23l1 -7.5t4 -18t8 -22.5
t13 -21q14 -16 31 -20t32 -4q17 0 34 5t31 25q14 19 17 40t3 38q0 14 -3 37t-17 42q-8 11 -25 22t-45 11q-11 0 -25 -3.5t-28 -16.5q-3 -3 -9 -11.5t-10 -22.5l-119 24l25 383h366z" />
    <glyph glyph-name="six" unicode="6" 
d="M280 322q-17 0 -33 -5.5t-29 -23.5q-14 -19 -16 -41t-2 -41q0 -9 0.5 -20.5t2.5 -23.5t6.5 -23.5t12.5 -20.5q20 -23 57 -23q20 0 33.5 8.5t21.5 21.5q12 18 14.5 41.5t2.5 45.5q0 21 -3 43.5t-18 39.5q-13 15 -26 18.5t-24 3.5zM371 477q-1 11 -5.5 34t-18.5 42
q-11 14 -27.5 24t-38.5 10q-21 0 -35.5 -11t-25.5 -30q-11 -20 -16.5 -47t-7.5 -61q-2 -19 -2.5 -44.5t-0.5 -38.5q6 13 15.5 25.5t21.5 22.5q14 11 36.5 20t52.5 9q24 0 49 -7t48 -23q16 -11 30.5 -27.5t26 -39.5t18 -53t6.5 -69q0 -20 -2 -41.5t-9.5 -44t-21 -44.5
t-35.5 -42q-21 -18 -55.5 -35t-88.5 -17q-32 0 -57 6t-44.5 15.5t-33.5 21t-24 22.5q-26 29 -40.5 67t-21.5 77.5t-8.5 76t-1.5 63.5q0 31 1.5 67t8.5 73t21 72.5t38 66.5q40 50 84 65t83 15q10 0 26 -1t36 -7t41.5 -18t41.5 -33q23 -25 38 -58.5t21 -65.5z" />
    <glyph glyph-name="seven" unicode="7" horiz-adv-x="529" 
d="M480 686v-116q-30 -39 -61.5 -94.5t-56.5 -133.5t-36 -160.5t-13 -181.5h-164q2 98 23 192.5t69 191.5q29 59 57.5 100t51.5 68h-290l12 134h408z" />
    <glyph glyph-name="eight" unicode="8" 
d="M230 289q-8 -5 -21.5 -15t-23.5 -22q-13 -16 -17 -32t-4 -33t5 -35.5t22 -33.5q16 -14 34 -19t33 -5q18 0 36.5 4.5t35.5 19.5q24 22 24 56q0 13 -5 27t-18.5 29t-38 30t-62.5 29zM299 419q24 24 36 45t12 53q0 16 -3.5 31t-17.5 29q-10 10 -24 16t-32 6q-14 0 -30.5 -6
t-27.5 -17q-14 -14 -17 -29.5t-3 -26.5q0 -24 11 -36.5t25 -23.5q20 -15 38.5 -25t32.5 -16zM389 374q14 -6 30 -17.5t33 -32.5q44 -55 44 -120q0 -45 -15.5 -84.5t-42.5 -66.5q-21 -21 -45.5 -34t-48.5 -19.5t-47 -8.5t-41 -2q-19 0 -41 2t-44 7.5t-43.5 16t-40.5 27.5
q-22 20 -39 52t-17 79q0 43 13.5 71t28.5 45q16 17 37 30.5t32 18.5q-11 7 -26 20t-27 27q-19 23 -29 53t-10 63q0 39 15.5 76.5t39.5 61.5q19 20 42 31.5t45 17.5t42 7.5t35 1.5q56 0 91 -12t55 -28q29 -23 46 -58.5t17 -72.5q0 -24 -7 -51.5t-23 -49.5q-11 -16 -28 -29.5
t-31 -21.5z" />
    <glyph glyph-name="nine" unicode="9" 
d="M249 587q-18 0 -33 -9t-24 -23q-11 -17 -14 -41.5t-3 -42.5q0 -14 4 -35.5t17 -36.5q8 -9 20.5 -16t32.5 -7q45 0 64 34q5 8 9.5 24.5t4.5 48.5q0 17 -4 40t-20 41q-11 13 -25.5 18t-28.5 5zM176 182q1 -14 5.5 -29t13.5 -27q11 -14 24 -20t29 -6q12 0 25.5 4.5
t26.5 18.5q12 13 19 37t10.5 51.5t3.5 55.5t-1 49q-7 -12 -17 -23.5t-23 -19.5q-17 -11 -37 -15t-39 -4q-45 0 -73 14t-43 27q-31 27 -50.5 72t-19.5 100q0 61 19.5 108t53.5 76q35 30 73.5 38t69.5 8t68 -8t73 -40q31 -29 48.5 -67.5t26 -79.5t10 -81.5t1.5 -72.5
q0 -35 -2.5 -75t-10.5 -79.5t-23 -76t-40 -63.5q-10 -11 -24.5 -22.5t-34 -21t-44 -15.5t-54.5 -6q-43 0 -77.5 13t-57.5 35q-16 15 -27.5 34.5t-18.5 37.5t-10.5 31.5t-4.5 16.5z" />
    <glyph glyph-name="colon" unicode=":" horiz-adv-x="267" 
d="M204 508v-153l-141 1v152h141zM204 152v-152h-141v152h141z" />
    <glyph glyph-name="semicolon" unicode=";" horiz-adv-x="267" 
d="M204 508v-153l-141 1v152h141zM204 152v-138l-86 -177h-55l66 163h-66v152h141z" />
    <glyph glyph-name="semicolon" unicode="&#x37e;" horiz-adv-x="267" 
d="M204 508v-153l-141 1v152h141zM204 152v-138l-86 -177h-55l66 163h-66v152h141z" />
    <glyph glyph-name="less" unicode="&#x3c;" 
d="M486 489l-283 -146l282 -147v-151l-444 234v129l445 233v-152z" />
    <glyph glyph-name="equal" unicode="=" horiz-adv-x="529" 
d="M54 205v109h421v-109h-421zM54 372v109h421v-108z" />
    <glyph glyph-name="greater" unicode="&#x3e;" 
d="M41 197l283 146l-282 147l-1 151l445 -234v-129l-445 -233v152z" />
    <glyph glyph-name="question" unicode="?" horiz-adv-x="494" 
d="M294 146v-146h-134v146h134zM30 468q1 17 4.5 40.5t12 49.5t23 51t38.5 45q32 26 66.5 34.5t66.5 8.5q53 0 87 -14t52 -30q26 -23 45 -62t19 -83q0 -40 -14 -78t-35 -64q-10 -12 -17.5 -19t-16 -14.5t-20 -17t-27.5 -27.5q-8 -9 -13.5 -16.5t-9 -17.5t-4.5 -23.5t0 -34.5
h-121q0 41 0.5 62.5t3.5 37.5q5 21 15.5 38t24.5 32q17 17 30 28.5t26 31.5q25 37 25 79q0 11 -2.5 26t-13.5 26q-7 7 -18 11.5t-25 4.5q-31 0 -51 -25q-15 -20 -17 -46l-4 -52z" />
    <glyph glyph-name="at" unicode="@" horiz-adv-x="650" 
d="M334 436q-6 0 -16.5 -5t-21.5 -22q-7 -11 -13.5 -35t-6.5 -69q0 -15 2 -29t8 -26q9 -19 30 -19q14 0 22 8.5t13 17.5q7 14 12 38.5t5 70.5q0 12 -1.5 27t-9.5 29q-9 14 -23 14zM478 522l-29 -209q-2 -11 -3.5 -28t-1.5 -22v-13q0 -8 2.5 -20.5t16.5 -12.5q15 0 26 9
t19 19q21 29 29.5 62t8.5 75q0 84 -22.5 134.5t-50.5 73.5q-23 20 -57.5 31.5t-80.5 11.5q-14 0 -33 -2.5t-40 -10.5t-43.5 -23t-43.5 -40q-32 -38 -49.5 -94t-17.5 -126q0 -75 23 -131t60 -91q20 -19 41 -30.5t42 -18t40.5 -8.5t37.5 -2q51 0 93.5 13t85.5 42l27 -67
q-45 -30 -100.5 -47t-112.5 -17q-55 0 -110.5 18.5t-96.5 51.5q-24 20 -46 48t-38 63.5t-25.5 78t-9.5 90.5q0 38 5.5 77.5t17.5 76.5t31 71t45 61q15 16 35.5 32.5t47 30t59 22t71.5 8.5q51 0 103.5 -14t92.5 -46q44 -35 74 -100t30 -148q0 -57 -17 -113t-54 -96
q-28 -30 -58 -41.5t-56 -11.5q-11 0 -23 4t-23 14q-8 8 -14 18.5t-9 21.5q-14 -27 -35 -43t-53 -16q-43 0 -73 40q-19 26 -26.5 62t-7.5 69q0 25 4 51.5t12.5 52t21.5 47.5t30 37q15 13 35 22.5t40 9.5q21 0 44 -11.5t33 -40.5l6 45h70z" />
    <glyph glyph-name="A" unicode="A" horiz-adv-x="524" 
d="M247 539l-66 -279h135zM336 686l196 -686h-154l-34 142h-193l-33 -142h-139l205 686h152z" />
    <glyph glyph-name="B" unicode="B" horiz-adv-x="586" 
d="M290 112q20 0 42.5 3t37.5 18q13 13 18 34t5 39q0 34 -10.5 51.5t-20.5 24.5q-16 11 -35.5 13.5t-36.5 2.5h-74v-186h74zM265 410q17 0 39.5 2t42.5 16t24 32t4 33q0 18 -5 34t-22 30q-18 14 -37.5 15.5t-34.5 1.5h-60v-164h49zM322 686q32 0 55.5 -3.5t40 -8t27.5 -10.5
t18 -10q11 -8 22.5 -20t21.5 -30t16 -41.5t6 -53.5q0 -20 -5 -50t-28 -58q-6 -7 -21.5 -21t-43.5 -22q30 -8 47.5 -23t25.5 -23q20 -23 31.5 -56t11.5 -67q0 -36 -14.5 -75t-39.5 -63q-19 -19 -41.5 -29t-44.5 -15t-42 -6t-35 -1h-264v686h256z" />
    <glyph glyph-name="C" unicode="C" horiz-adv-x="563" 
d="M539 241q-3 -42 -19 -91t-51 -89q-38 -42 -80.5 -57t-87.5 -15q-16 0 -36.5 2t-43 9t-45.5 20t-44 34q-24 24 -41.5 57t-28.5 70.5t-16 78t-5 81.5q0 39 5 80.5t16 81.5t30 74.5t46 60.5q21 20 44.5 31.5t45.5 17.5t41.5 8t33.5 2q38 0 78.5 -11.5t75.5 -44.5
q36 -33 56.5 -86.5t22.5 -123.5l-137 -11q-2 32 -7.5 66.5t-27.5 58.5q-27 28 -64 28q-19 0 -34 -8.5t-25 -20.5q-13 -16 -21 -41.5t-12 -55t-5.5 -59.5t-1.5 -54q0 -44 3 -75t7.5 -52.5t10 -34.5t10.5 -21q25 -38 71 -38q20 0 35.5 7.5t29.5 27.5t21.5 45t9.5 57z" />
    <glyph glyph-name="D" unicode="D" horiz-adv-x="581" 
d="M216 118h26q14 0 30 1.5t32 8t30.5 20t26.5 38.5q4 9 8.5 22t8 32t6 45.5t2.5 61.5q0 68 -8 103t-16 51q-11 24 -26 37.5t-31 20t-32 8t-31 1.5h-26v-450zM229 686q16 0 46.5 -1t65.5 -9t71 -25t64 -50q19 -23 32.5 -54.5t21.5 -66t12 -69.5t4 -65q0 -27 -4 -61
t-12.5 -69t-21.5 -67.5t-32 -57.5q-26 -33 -55.5 -51.5t-60 -27.5t-60 -10.5t-54.5 -1.5h-180v686h163z" />
    <glyph glyph-name="E" unicode="E" horiz-adv-x="493" 
d="M484 686v-118h-268v-159h208v-118h-208v-173h268v-118h-418v686h418z" />
    <glyph glyph-name="F" unicode="F" horiz-adv-x="457" 
d="M473 686v-118h-257v-179h198v-118h-198v-271h-150v686h407z" />
    <glyph glyph-name="G" unicode="G" horiz-adv-x="599" 
d="M546 366v-366h-64l-19 78q-6 -10 -18.5 -24.5t-32.5 -29.5q-50 -35 -107 -35q-51 0 -94 16.5t-72 42.5q-26 23 -44.5 55.5t-30.5 70t-17.5 78.5t-5.5 82q0 110 29.5 188.5t79.5 120.5q20 17 41.5 27.5t42 16.5t39.5 8t35 2q6 0 22.5 -1t38 -5t45 -12.5t44.5 -24.5
q34 -26 57 -73t31 -119l-136 -23q-1 10 -3 24t-6 29t-10.5 29t-16.5 25q-11 13 -27 20t-33 7q-15 0 -31 -5t-29 -16q-24 -20 -38.5 -69.5t-14.5 -146.5q0 -43 3 -74.5t8.5 -54.5t14 -38.5t19.5 -26.5q29 -29 73 -29q14 0 32 5.5t34 25.5q17 22 20.5 48.5t4.5 55.5h-102v118
h238z" />
    <glyph glyph-name="H" unicode="H" horiz-adv-x="597" 
d="M216 686v-276h165v276h150v-686h-150v282h-165v-282h-150v686h150z" />
    <glyph glyph-name="I" unicode="I" horiz-adv-x="282" 
d="M216 686v-686h-150v686h150z" />
    <glyph glyph-name="J" unicode="J" horiz-adv-x="334" 
d="M271 686v-478q0 -64 -12 -112.5t-54 -77.5q-15 -10 -32 -16t-33.5 -9t-30.5 -3.5t-23 -0.5q-27 0 -46 3t-45 8v125q7 -1 24 -3t32 -2q20 0 29.5 2.5t13.5 4.5q13 8 20.5 27.5t7.5 56.5l-1 475h150z" />
    <glyph glyph-name="K" unicode="K" horiz-adv-x="543" 
d="M216 686v-286l166 286h153l-172 -252l186 -434h-156l-120 316l-57 -83v-233h-150v686h150z" />
    <glyph glyph-name="L" unicode="L" horiz-adv-x="439" 
d="M216 686v-558h221v-128h-371v686h150z" />
    <glyph glyph-name="M" unicode="M" horiz-adv-x="772" 
d="M286 686l98 -424l110 424h212v-686h-140v574l-140 -574h-110l-128 574v-574h-122v686h220z" />
    <glyph glyph-name="N" unicode="N" horiz-adv-x="580" 
d="M226 686l178 -426v426h116v-686h-134l-210 496v-496h-116v686h166z" />
    <glyph glyph-name="O" unicode="O" horiz-adv-x="582" 
d="M291 573q-18 0 -34.5 -8.5t-29.5 -29.5q-5 -8 -9.5 -21.5t-8.5 -35.5t-6 -54.5t-2 -80.5t2 -81t6 -55.5t8.5 -35.5t9.5 -21q14 -23 32 -30t32 -7q25 0 41 11.5t24 25.5q3 6 7.5 17t8.5 33t6.5 56.5t2.5 86.5q0 53 -3 87.5t-6.5 56.5t-8 32.5t-7.5 15.5q-14 25 -33 31.5
t-32 6.5zM291 697q61 0 101 -20.5t66 -46.5q29 -30 45.5 -70.5t25 -81t10.5 -76.5t2 -59q0 -178 -64.5 -266t-185.5 -88q-17 0 -37.5 2.5t-42.5 9.5t-44 20.5t-43 34.5q-28 28 -44.5 63.5t-25 73t-11 76t-2.5 74.5t2.5 74.5t11 76t25 72.5t44.5 64q21 21 43 34.5t44 20.5
t42.5 9.5t37.5 2.5z" />
    <glyph glyph-name="P" unicode="P" horiz-adv-x="525" 
d="M216 372h48q16 0 32 2.5t27 9.5q5 3 11.5 9t12.5 16t10 25t4 37q0 41 -11 62.5t-28 30.5q-5 3 -18 7t-40 4h-48v-203zM292 686q44 0 89.5 -9t81.5 -44q23 -23 38.5 -62t15.5 -99q0 -38 -8 -77t-28 -67q-18 -25 -41 -39.5t-48.5 -22t-52 -10t-50.5 -2.5h-73v-254h-150v686
h226z" />
    <glyph glyph-name="Q" unicode="Q" horiz-adv-x="582" 
d="M291 573q-19 0 -35 -8.5t-29 -29.5q-5 -8 -9.5 -21.5t-8.5 -35.5t-6 -54.5t-2 -80.5t2 -81t6 -55.5t8.5 -35.5t9.5 -21q14 -23 32 -30t32 -7q25 0 41 11.5t24 25.5q3 6 7.5 17t8.5 33t6.5 56.5t2.5 86.5q0 53 -3 87.5t-6.5 56.5t-8 32.5t-7.5 15.5q-6 11 -21.5 24.5
t-43.5 13.5zM515 -133q-11 -3 -25.5 -5.5t-33.5 -2.5q-50 0 -78 15t-41.5 34t-17 36.5t-3.5 23.5t0.5 9.5t-1.5 12.5q-36 -3 -65.5 2t-53.5 15t-42 23t-31 26q-29 30 -45.5 70t-24.5 80.5t-10 77t-2 59.5t2 59.5t10 77t24.5 80.5t45.5 70q23 24 64 45.5t104 21.5t104 -21.5
t64 -45.5q29 -31 45.5 -71t24.5 -80t10 -76.5t2 -59.5q0 -25 -2 -61t-10 -75.5t-24.5 -79t-46.5 -71.5q-19 -21 -44 -36q-1 -17 3.5 -27.5t12 -15.5t16.5 -6.5t17 -1.5q11 0 24.5 1.5t27.5 5.5v-109z" />
    <glyph glyph-name="R" unicode="R" horiz-adv-x="562" 
d="M217 382h66q5 0 14.5 1t20.5 4.5t21.5 10.5t18.5 20q9 15 11.5 33.5t2.5 26.5q0 43 -19 68q-15 19 -33.5 23.5t-40.5 4.5h-62v-192zM307 686q17 0 37 -1.5t41.5 -7t43 -17.5t40.5 -33q23 -25 37 -62.5t14 -85.5q0 -38 -9 -67.5t-23 -52.5q-17 -28 -36 -41t-30 -18
l126 -300h-165l-91 270h-75v-270h-151v686h241z" />
    <glyph glyph-name="S" unicode="S" 
d="M360 489q-2 8 -9.5 25t-20.5 31q-16 17 -33.5 22.5t-34.5 5.5q-11 0 -21.5 -2.5t-23.5 -10.5q-26 -17 -26 -51q0 -20 8.5 -30.5t22.5 -19.5q20 -14 41.5 -22.5t45.5 -17.5q32 -12 63.5 -26t57.5 -36q31 -26 49.5 -62.5t18.5 -86.5q0 -54 -21 -95.5t-52 -67.5
q-24 -20 -65.5 -38t-104.5 -18q-64 0 -107.5 21t-71.5 52q-26 29 -40 61.5t-19 53.5l131 39q2 -11 9 -30t19 -34q19 -24 42 -31.5t43 -7.5q14 0 29 2.5t29 13.5q10 8 18.5 21t8.5 34q0 33 -24 54q-14 12 -32 19t-39 15q-60 21 -91.5 38t-50.5 33q-22 18 -34.5 37.5t-19 38.5
t-8.5 35.5t-2 30.5q0 56 18 93.5t44 63.5q32 31 71 43t84 12q56 0 94 -14t61 -33q26 -22 43 -52t24 -61z" />
    <glyph glyph-name="T" unicode="T" horiz-adv-x="403" 
d="M416 686v-128h-141v-558h-150v558h-138v128h429z" />
    <glyph glyph-name="U" unicode="U" horiz-adv-x="597" 
d="M216 686v-392q0 -48 1 -86t19 -62q7 -9 25 -21t54 -12q14 0 31 4t31 18q19 19 23.5 48t4.5 52v451h126v-453q0 -25 -2.5 -53t-11 -55t-25 -52.5t-44.5 -44.5q-28 -20 -67 -29.5t-79 -9.5q-38 0 -79 8t-68 25q-29 18 -46.5 44t-27 58.5t-12.5 70.5t-3 81v410h150z" />
    <glyph glyph-name="V" unicode="V" horiz-adv-x="473" 
d="M145 686l104 -522l109 522h130l-168 -686h-170l-165 686h160z" />
    <glyph glyph-name="W" unicode="W" horiz-adv-x="735" 
d="M148 686l72 -475l90 475h138l85 -476l84 476h126l-147 -690h-136l-90 477l-93 -477h-134l-149 690h154z" />
    <glyph glyph-name="X" unicode="X" horiz-adv-x="493" 
d="M173 686l82 -178l86 178h144l-162 -310l186 -376h-168l-100 224l-113 -224h-144l189 352l-168 334h168z" />
    <glyph glyph-name="Y" unicode="Y" horiz-adv-x="456" 
d="M137 686l97 -251l103 251h148l-192 -396v-290h-150v290l-172 396h166z" />
    <glyph glyph-name="Z" unicode="Z" horiz-adv-x="473" 
d="M462 686v-107l-285 -455h295v-124h-471v105l288 457h-267v124h440z" />
    <glyph glyph-name="bracketleft" unicode="[" horiz-adv-x="354" 
d="M289 686v-65h-86v-729h86v-64h-212v858h212z" />
    <glyph glyph-name="backslash" unicode="\" horiz-adv-x="545" 
d="M565 -172h-95l-419 858h95z" />
    <glyph glyph-name="bracketright" unicode="]" horiz-adv-x="354" 
d="M65 -172v64h86v729h-86v65h212v-858h-212z" />
    <glyph glyph-name="asciicircum" unicode="^" horiz-adv-x="515" 
d="M16 361l157 329h170l156 -329h-136l-105 225l-106 -225h-136z" />
    <glyph glyph-name="underscore" unicode="_" horiz-adv-x="515" 
d="M515 -59v-91h-515v91h515z" />
    <glyph glyph-name="grave" unicode="`" horiz-adv-x="479" 
d="M288 565l-186 117l56 84l172 -158z" />
    <glyph glyph-name="a" unicode="a" horiz-adv-x="495" 
d="M299 244l-19 -3q-32 -5 -52 -14t-32 -29q-8 -13 -10.5 -26.5t-2.5 -27.5q0 -11 2.5 -21t9.5 -20q15 -20 37 -20q26 0 37.5 15t16.5 29q8 23 10.5 45t2.5 46v26zM54 361q5 32 18 58.5t30 43.5q20 21 58.5 39t101.5 18q29 0 60 -6t59 -25q22 -15 34 -32.5t18 -38.5t7 -46.5
t1 -55.5v-203q0 -29 0.5 -48t2 -31.5t3 -20t3.5 -13.5h-132q-7 25 -7.5 48t0.5 30q-14 -30 -38 -52q-18 -17 -43.5 -27t-57.5 -10q-25 0 -50.5 8.5t-44.5 26.5q-14 14 -27 38.5t-13 66.5q0 32 9 59t23 47q11 15 25 25.5t28 17.5t27 11.5t23 7.5q29 8 60.5 12t66.5 7v41
q0 13 -2.5 27t-10.5 25q-6 8 -15.5 12.5t-24.5 4.5q-19 0 -29.5 -8.5t-15.5 -17.5q-3 -5 -6 -16t-6 -36z" />
    <glyph glyph-name="b" unicode="b" horiz-adv-x="495" 
d="M195 180q0 -17 3.5 -39.5t12.5 -35.5q10 -14 22 -17.5t20 -3.5q20 0 30.5 8t18.5 24q3 6 5.5 15.5t5 26.5t4 42t1.5 61q0 40 -2.5 66t-5.5 42t-6.5 23.5t-5.5 10.5q-9 14 -20.5 18.5t-22.5 4.5q-26 0 -43 -21q-11 -14 -14 -30t-3 -30v-165zM195 689v-228q6 10 14 19
t19 17q13 9 32.5 16t45.5 7q32 0 54.5 -13t36.5 -26q35 -34 51 -91t16 -125q0 -15 -1.5 -42.5t-7.5 -58.5t-17.5 -63t-31.5 -56q-26 -31 -58 -43t-66 -12q-16 0 -36.5 4.5t-40.5 19.5q-7 5 -19 17.5t-20 35.5q-11 -21 -17 -37t-10 -30h-86v689h142z" />
    <glyph glyph-name="c" unicode="c" horiz-adv-x="460" 
d="M302 317q-2 24 -4.5 40.5t-10.5 27.5q-10 15 -22 19t-20 4q-11 0 -24.5 -5.5t-24.5 -24.5q-6 -11 -12.5 -38t-6.5 -86q0 -44 5 -73t16 -50q8 -14 18.5 -21.5t27.5 -7.5q27 0 41 21q7 10 11 27t6 49l133 -8q-1 -11 -3.5 -28t-8.5 -36.5t-15.5 -40t-24.5 -37.5
q-19 -21 -54.5 -40t-90.5 -19q-29 0 -52 5.5t-41 14t-30.5 18.5t-21.5 19q-21 22 -33.5 49t-18.5 54.5t-8 54.5t-2 48t1.5 47t8 54t19.5 56t35 51q18 19 38 31t39.5 18t38 8t35.5 2q15 0 31.5 -1.5t33.5 -7t34.5 -16t34.5 -28.5q28 -29 41 -68.5t14 -76.5z" />
    <glyph glyph-name="d" unicode="d" horiz-adv-x="496" 
d="M301 332q0 17 -5 35.5t-12 29.5q-16 26 -44 26q-18 0 -28.5 -7.5t-18.5 -21.5t-12 -42.5t-4 -89.5v-21q0 -61 5.5 -88t12.5 -40q9 -15 19.5 -20.5t24.5 -5.5q12 0 22.5 4t20.5 18q11 14 15 36.5t4 60.5v126zM443 689v-689h-134v85q-5 -19 -16 -37t-27 -31
q-18 -15 -35.5 -19.5t-34.5 -4.5q-29 0 -55.5 8.5t-51.5 36.5q-20 22 -31.5 52.5t-17.5 61t-7.5 57.5t-1.5 43q0 91 20.5 146t51.5 83q20 17 43.5 26.5t52.5 9.5q10 0 27 -2.5t34 -11.5q25 -13 41 -41v227h142z" />
    <glyph glyph-name="e" unicode="e" horiz-adv-x="476" 
d="M311 313q1 61 -18 88q-8 11 -21 18t-28 7q-14 0 -27 -6.5t-23 -22.5q-9 -15 -11.5 -35.5t-4.5 -48.5h133zM177 231q-2 -55 2.5 -81t12.5 -38q11 -17 25.5 -22.5t29.5 -5.5q9 0 24 3.5t28 20.5q5 7 8.5 16t6 18.5t3.5 18t1 14.5l127 -8q-5 -27 -18 -60t-36 -58
q-17 -19 -36.5 -30.5t-39.5 -18t-39 -8.5t-35 -2q-15 0 -32.5 2t-36.5 7.5t-38 16.5t-37 29q-34 35 -50 89t-16 116q0 59 15 116t49 94q20 21 55 40.5t91 19.5q62 0 102 -26t64 -67q15 -25 23 -53.5t11.5 -55.5t4 -50.5t-0.5 -36.5h-268z" />
    <glyph glyph-name="f" unicode="f" horiz-adv-x="306" 
d="M310 510v-112h-91v-398h-142v398h-58v112h58v22q0 20 1 40.5t6.5 40t17 37.5t31.5 34q26 20 57 26t61 6q20 0 36.5 -2t28.5 -4v-108q-4 0 -14.5 1t-21.5 1q-10 0 -24 -2.5t-25 -16.5q-6 -8 -9 -22.5t-3 -40.5v-12h91z" />
    <glyph glyph-name="g" unicode="g" horiz-adv-x="475" 
d="M183 23q-5 -3 -14 -9t-14 -12q-8 -9 -12 -20t-4 -21q0 -15 7 -24t19 -15q9 -5 27.5 -9t56.5 -4q40 0 57 4t22 6q16 8 22 19.5t6 25.5q0 12 -4 21.5t-15 17.5q-10 7 -28.5 9.5t-63.5 4.5q-18 1 -31 2t-31 4zM249 444q-9 0 -20 -3.5t-19 -15.5q-8 -11 -10.5 -30.5
t-2.5 -35.5q0 -5 0.5 -13.5t2 -18t5 -19t9.5 -15.5q5 -5 13.5 -9t19.5 -4t20.5 4.5t16.5 18.5q5 12 6.5 31t1.5 27q0 17 -2.5 36t-9.5 30t-14.5 14t-16.5 3zM486 501q-5 2 -13.5 3t-18.5 1t-21.5 -3.5t-19.5 -14.5q-5 -6 -8 -15t-4 -13q17 -17 27 -44.5t10 -53.5
q0 -35 -12.5 -64.5t-32.5 -47.5q-26 -23 -63 -33.5t-75 -10.5q-17 0 -34 2.5t-33 6.5q-5 -2 -10.5 -6t-8.5 -7q-14 -12 -14 -27q0 -12 6 -18.5t15 -10t20.5 -4.5t22.5 -2q10 0 25.5 -1t32 -2t32 -2.5t25.5 -2.5q13 -2 28 -4t30 -7t29.5 -13.5t26.5 -21.5q20 -22 25.5 -47.5
t5.5 -45.5q0 -23 -7.5 -54.5t-38.5 -60.5q-20 -18 -45 -29t-52 -17t-54 -8t-52 -2q-63 0 -102 9t-63 27q-26 20 -34.5 42t-8.5 40t5.5 34.5t20.5 31.5q12 12 27.5 19.5t28.5 11.5q-8 3 -19 9.5t-21 17t-17.5 24.5t-7.5 32q0 24 9.5 45.5t26.5 37.5q2 2 13.5 11.5t37.5 23.5
q-8 3 -20.5 10.5t-24.5 22t-21 37.5t-9 58q0 8 1 20t5 26.5t13 30t24 30.5q16 15 35 24.5t38.5 15t38.5 7t36 1.5q35 0 60 -6t48 -17q0 8 2 19t6 22.5t10 22t14 18.5q14 12 30.5 15.5t29.5 3.5q14 0 24 -1.5t20 -3.5v-92z" />
    <glyph glyph-name="h" unicode="h" horiz-adv-x="495" 
d="M195 689v-233q8 10 17.5 20.5t18.5 17.5q23 17 49 21.5t41 4.5q16 0 42 -5t49 -28q15 -15 22.5 -34.5t11 -40.5t3.5 -42.5v-42.5v-327h-142v327q0 20 -0.5 36t-7.5 26q-5 8 -15.5 13.5t-27.5 5.5q-18 0 -29 -5.5t-16 -11.5q-11 -12 -13.5 -28t-2.5 -31v-332h-142v689h142
z" />
    <glyph glyph-name="i" unicode="i" horiz-adv-x="249" 
d="M52 552v141h145v-141h-145zM195 510v-510h-142v510h142z" />
    <glyph glyph-name="j" unicode="j" horiz-adv-x="246" 
d="M56 552v141h142v-141h-142zM199 510v-513q0 -15 -0.5 -34t-3.5 -38.5t-9.5 -38.5t-18.5 -34q-11 -13 -25 -20.5t-27.5 -11.5t-26 -5t-21.5 -1q-17 0 -36.5 1.5t-39.5 5.5v116q6 -1 9.5 -1h7.5q11 0 22.5 1.5t19.5 15.5q5 8 6 21t1 24v512h142z" />
    <glyph glyph-name="k" unicode="k" horiz-adv-x="477" 
d="M195 689v-376l144 197h129l-128 -172l141 -338h-153l-81 237l-52 -73v-164h-142v689h142z" />
    <glyph glyph-name="l" unicode="l" horiz-adv-x="248" 
d="M195 689v-689h-142v689h142z" />
    <glyph glyph-name="m" unicode="m" horiz-adv-x="725" 
d="M188 510v-70q3 6 11.5 21t24.5 29q19 17 39.5 23.5t43.5 6.5q56 0 85 -27q11 -10 18 -24t11 -29q5 14 13 25.5t22 23.5q23 20 44 25.5t47 5.5q20 0 45.5 -5t45.5 -22q17 -15 29 -44.5t12 -77.5v-371h-142v347q0 19 -2 28.5t-5 14.5q-4 7 -13 12.5t-26 5.5
q-8 0 -20.5 -3.5t-22.5 -18.5q-5 -8 -8 -21.5t-3 -36.5v-328h-142v358q0 9 -2 19.5t-7 16.5t-14 10t-21 4q-29 0 -42 -18q-8 -11 -11 -31t-3 -36v-323h-142v510h135z" />
    <glyph glyph-name="n" unicode="n" horiz-adv-x="495" 
d="M188 510v-70q14 35 42 55q22 17 44 21t42 4q17 0 43 -5t49 -26q15 -14 23.5 -30.5t12.5 -33.5t4.5 -35.5t0.5 -36.5v-353h-142v348q0 10 -2 24t-11 23q-5 5 -14 9t-23 4q-20 0 -31 -6t-17 -14q-8 -11 -11 -28.5t-3 -32.5v-327h-142v510h135z" />
    <glyph glyph-name="o" unicode="o" horiz-adv-x="474" 
d="M237 420q-13 0 -23 -6t-17 -15q-3 -5 -6.5 -13t-6.5 -24t-5 -41.5t-2 -65.5t2 -65.5t5 -41.5t6.5 -24.5t6.5 -12.5q7 -9 17 -15t23 -6t23 6t17 15q3 4 6.5 12.5t6.5 24.5t5 41.5t2 65.5t-2 65.5t-5 41.5t-6.5 24t-6.5 13q-7 9 -17 15t-23 6zM237 520q34 0 71 -8.5
t72 -45.5q22 -24 34.5 -52.5t19 -57t8 -55t1.5 -46.5t-1.5 -46.5t-8 -55t-19 -57t-34.5 -52.5q-35 -37 -72 -45.5t-71 -8.5t-71 8.5t-72 45.5q-22 24 -34.5 52.5t-19 57t-8 55t-1.5 46.5t1.5 46.5t8 55t19 57t34.5 52.5q35 37 72 45.5t71 8.5z" />
    <glyph glyph-name="p" unicode="p" horiz-adv-x="497" 
d="M195 172q0 -34 6 -49t11 -20q10 -11 22.5 -13.5t20.5 -2.5q13 0 23.5 3.5t21.5 19.5q6 9 9.5 21t6 30t3.5 43t1 59q0 51 -3 84t-17 53q-10 14 -20.5 18.5t-19.5 4.5q-37 0 -53 -33q-8 -16 -10 -34t-2 -32v-152zM187 510v-77q8 21 19.5 36.5t24.5 24.5q14 11 33.5 17
t41.5 6q25 0 49 -9t43 -26q18 -16 31 -39.5t21 -51.5t12 -60t4 -65q0 -31 -3 -63t-10 -62t-18.5 -56t-28.5 -44t-45 -33t-69 -15q-17 0 -31 3.5t-30 11.5q-20 10 -36 29v-209h-142v682h134z" />
    <glyph glyph-name="q" unicode="q" horiz-adv-x="496" 
d="M296 307q0 42 -4 63t-15 35q-10 11 -19 14.5t-17 3.5q-20 0 -32 -8.5t-17 -17.5q-2 -3 -4.5 -10t-4.5 -24t-4 -45t-2 -73q0 -33 1 -55t3 -36t4 -22t5 -14q8 -17 19 -24t28 -7q30 0 45 28q7 13 10.5 37.5t3.5 78.5v76zM443 510q-2 -16 -2.5 -34.5t-1.5 -36t-1 -33.5v-26
v-552h-142v225q-14 -23 -36 -39q-14 -9 -30.5 -15t-34.5 -6q-23 0 -47.5 8.5t-47.5 29.5q-24 23 -38 53.5t-21 61.5t-8.5 60t-1.5 50q0 24 2 52t8 56.5t18.5 56t33.5 50.5q22 23 47 34.5t58 11.5q18 0 40 -4.5t44 -21.5q14 -11 26 -26.5t16 -20.5q9 11 19.5 27.5t18.5 38.5
h81z" />
    <glyph glyph-name="r" unicode="r" horiz-adv-x="317" 
d="M178 510v-123q5 21 16 47.5t28 45.5q33 37 80 37q10 0 21 -3v-139q-20 4 -44.5 0.5t-45.5 -23.5q-14 -13 -21.5 -28.5t-11.5 -33t-4.5 -35.5t-0.5 -36v-219h-142v510h125z" />
    <glyph glyph-name="s" unicode="s" horiz-adv-x="423" 
d="M288 357q-2 7 -6.5 19t-15.5 25q-21 25 -51 25q-8 0 -17 -2t-17 -10t-10 -16t-2 -15q0 -28 22 -44q8 -6 21.5 -11.5t41.5 -15.5q27 -10 55 -21t49 -29q20 -17 33 -42.5t13 -61.5q0 -32 -10.5 -61t-29.5 -50q-23 -26 -61.5 -42t-91.5 -16q-36 0 -77 11t-67 37
q-23 22 -33.5 52.5t-13.5 51.5l113 18q2 -11 7 -24t15 -25q15 -18 30 -22.5t30 -4.5q12 0 22.5 2.5t19.5 11.5t11 17.5t2 16.5q0 25 -22 42q-14 11 -29.5 16t-29.5 9q-28 8 -55.5 20t-51.5 34q-26 23 -36 50.5t-10 59.5q0 42 15.5 69t32.5 42q18 17 49.5 32t82.5 15
q26 0 59 -7.5t64 -36.5q19 -18 31.5 -41t18.5 -48z" />
    <glyph glyph-name="t" unicode="t" horiz-adv-x="322" 
d="M216 671v-161h95v-112h-95v-223q0 -9 1.5 -23.5t6.5 -22.5q5 -9 17.5 -16t35.5 -7q12 0 23.5 0.5t17.5 1.5v-108q-38 -8 -58.5 -9.5t-28.5 -1.5q-31 0 -63 8.5t-52 26.5q-15 13 -23 29t-12.5 33t-5.5 33.5t-1 31.5v247h-57v112h64l12 150z" />
    <glyph glyph-name="u" unicode="u" horiz-adv-x="495" 
d="M188 510v-355q0 -8 2 -19.5t7 -18.5q8 -12 21 -14.5t21 -2.5q14 0 24.5 3.5t18.5 14.5q13 16 15.5 40t2.5 54v298h142v-510h-134v70q-7 -14 -17 -28t-23 -25q-19 -16 -40 -22t-46 -6q-21 0 -46.5 5t-45.5 20q-29 23 -36.5 55t-7.5 58v383h142z" />
    <glyph glyph-name="v" unicode="v" horiz-adv-x="369" 
d="M126 510l70 -301l71 301h118l-140 -510h-112l-144 510h137z" />
    <glyph glyph-name="w" unicode="w" horiz-adv-x="599" 
d="M130 510l60 -310l57 310h138l46 -310l69 310h112l-128 -510h-119l-66 346l-64 -346h-115l-129 510h139z" />
    <glyph glyph-name="x" unicode="x" horiz-adv-x="385" 
d="M148 510l54 -118l66 118h124l-132 -226l151 -284h-154l-74 153l-85 -153h-124l151 261l-131 249h154z" />
    <glyph glyph-name="y" unicode="y" horiz-adv-x="383" 
d="M136 510l69 -312l66 312h129l-154 -518q-13 -43 -25.5 -75t-30.5 -55q-24 -29 -50.5 -38.5t-55.5 -9.5q-39 0 -69 10v116q13 -3 22.5 -3.5t20.5 -0.5q16 0 32 3.5t30 20.5q6 8 10.5 18t6.5 20l-151 512h150z" />
    <glyph glyph-name="z" unicode="z" horiz-adv-x="370" 
d="M356 510v-92l-189 -318h194v-100h-340v101l186 309h-169v100h318z" />
    <glyph glyph-name="braceleft" unicode="{" horiz-adv-x="353" 
d="M276 617q-15 1 -26 -1t-19 -12q-10 -12 -10.5 -26.5t-0.5 -25.5v-135q0 -52 -2 -79t-11 -42q-7 -11 -20.5 -19.5t-27.5 -12.5q14 -4 27.5 -12.5t20.5 -19.5q9 -14 11 -42.5t2 -78.5v-126q0 -18 0.5 -34.5t5 -29t16 -19.5t34.5 -5v-68q-60 -3 -89.5 0.5t-44.5 13.5
q-18 12 -27.5 30.5t-13.5 39t-4.5 40t-0.5 32.5v131q0 14 0.5 29.5t-0.5 29.5t-5 25.5t-14 16.5q-8 4 -19 4h-13v85q18 1 30 5t18 21q3 9 3 18v18v161q0 13 0.5 32.5t4.5 40t13.5 39t27.5 30.5q15 10 44.5 13.5t89.5 0.5v-68z" />
    <glyph glyph-name="bar" unicode="|" horiz-adv-x="535" 
d="M306 743v-817h-77v818z" />
    <glyph glyph-name="braceright" unicode="}" horiz-adv-x="353" 
d="M77 -103q22 -2 33.5 3.5t16.5 17t6 28.5t1 39v126q0 29 -0.5 54t4.5 45t18 33.5t39 20.5q-26 7 -39 20.5t-18 33t-4.5 44.5t0.5 55v112q0 23 -1 40t-6 28t-16.5 16t-33.5 4v68q71 4 108 -5.5t53.5 -30t18 -51t1.5 -69.5v-116q0 -28 -0.5 -47.5t3 -32t14 -19t33.5 -8.5
v-85q-22 1 -32.5 -6t-14.5 -20.5t-3.5 -33.5t0.5 -45v-131q0 -39 -1.5 -69.5t-18 -51t-53.5 -30t-108 -5.5v68z" />
    <glyph glyph-name="asciitilde" unicode="~" horiz-adv-x="699" 
d="M97 237q9 23 21.5 45t25.5 38q20 25 46 37.5t61 12.5q11 0 21.5 -1.5t22.5 -4.5t27.5 -8.5t35.5 -12.5l35 -13q11 -4 27 -8t29 -4q26 0 42.5 13.5t30.5 40.5l82 -43q-16 -32 -27 -47.5t-17 -22.5q-29 -32 -60.5 -42.5t-56.5 -10.5q-16 0 -29.5 3.5t-29.5 8.5l-43 15
q-37 13 -54.5 18.5t-31.5 5.5q-30 0 -46.5 -17.5t-29.5 -45.5z" />
    <glyph glyph-name="quotedblbase" unicode="&#x201e;" horiz-adv-x="442" 
d="M373 152v-152l-74 -134h-55l56 134h-56v152h129zM197 152v-152l-73 -134h-55l56 134h-56v152h128z" />
    <glyph glyph-name="ellipsis" unicode="&#x2026;" horiz-adv-x="791" 
d="M728 152v-152h-140v152h140zM466 152v-152h-141v152h141zM203 152v-152h-140v152h140z" />
    <glyph glyph-name="dagger" unicode="&#x2020;" horiz-adv-x="529" 
d="M333 686v-184h142v-119h-142v-555h-137v555h-142v119h142v184h137z" />
    <glyph glyph-name="quoteleft" unicode="&#x2018;" horiz-adv-x="249" 
d="M60 412v152l73 134h56l-57 -134h57v-152h-129z" />
    <glyph glyph-name="quoteright" unicode="&#x2019;" horiz-adv-x="213" 
d="M159 686v-152l-74 -134h-55l57 134h-57v152h129z" />
    <glyph glyph-name="quotedblleft" unicode="&#x201c;" horiz-adv-x="442" 
d="M69 412v152l73 134h55l-56 -134h56v-152h-128zM244 412v152l73 134h56l-57 -134h57v-152h-129z" />
    <glyph glyph-name="quotedblright" unicode="&#x201d;" horiz-adv-x="442" 
d="M373 686v-152l-74 -134h-55l56 134h-56v152h129zM197 686v-152l-73 -134h-55l56 134h-56v152h128z" />
    <glyph glyph-name="bullet" unicode="&#x2022;" horiz-adv-x="535" 
d="M197 265v156h141v-156h-141z" />
    <glyph glyph-name="endash" unicode="&#x2013;" horiz-adv-x="457" 
d="M415 313v-105h-373v105h373z" />
    <glyph glyph-name="emdash" unicode="&#x2014;" horiz-adv-x="686" 
d="M647 313v-105h-608v105h608z" />
    <glyph glyph-name="trademark" unicode="&#x2122;" horiz-adv-x="756" 
d="M436 665l56 -240l64 240h131v-391h-85v326l-84 -326h-66l-77 326v-326h-73v391h134zM271 665v-73h-85v-318h-91v318h-81v73h257z" />
    <glyph glyph-name="currency" unicode="&#xa4;" 
d="M263 273q13 0 27 5t26 15.5t19.5 25.5t7.5 35q0 19 -7.5 34t-19 25t-25.5 15t-27 5t-27 -5t-26 -15t-19.5 -25t-7.5 -34q0 -20 7.5 -35t19 -25.5t25.5 -15.5t27 -5zM415 577l72 -72l-66 -67q2 -4 11.5 -26t9.5 -58q0 -17 -4.5 -41.5t-15.5 -42.5l66 -66l-75 -76l-67 67
q-20 -9 -39 -15t-43 -6t-42.5 5.5t-43.5 16.5l-66 -67l-72 73l66 67q-6 8 -10 19t-6.5 23t-3.5 23t-1 20q0 18 4.5 41.5t15.5 40.5l-66 67l74 75l68 -66q23 11 41 15.5t42 4.5q25 0 42 -5t42 -16z" />
    <glyph glyph-name="section" unicode="&#xa7;" horiz-adv-x="528" 
d="M220 367q-20 -17 -24.5 -34t-4.5 -28q0 -20 8 -33t26 -26t37 -21.5t46 -21.5l17 -8q16 11 22 28t6 32q0 11 -6 26.5t-24 29.5q-15 12 -36.5 20.5t-49.5 25.5zM368 536q-5 25 -21 43q-9 10 -23.5 17t-37.5 7q-10 0 -22.5 -3t-23.5 -14q-10 -10 -13 -20.5t-3 -18.5
q0 -13 4 -24t16 -21q12 -11 31 -19t48 -22q47 -22 70 -37t34 -28q17 -19 28 -47t11 -63q0 -43 -16.5 -74t-52.5 -60q24 -16 38.5 -34t22.5 -37.5t10.5 -38.5t2.5 -36q0 -26 -8.5 -59t-37.5 -62q-19 -20 -40.5 -31t-42 -17t-38.5 -7.5t-30 -1.5q-63 0 -106 17t-66 42
q-9 10 -17 23.5t-14 27t-10 25.5t-6 21l118 20q2 -17 10 -33t20 -26q15 -13 31 -16t28 -3q11 0 30 2.5t33 15.5q8 7 13.5 19.5t5.5 32.5q0 25 -17 45q-9 11 -27 21.5t-57 27.5q-33 14 -64.5 28.5t-55.5 37.5q-28 26 -38.5 54.5t-10.5 59.5q0 45 18 79t60 60q-29 23 -42.5 53
t-13.5 62q0 33 12 67.5t36 57.5q21 21 57 34.5t84 13.5q46 0 81 -13.5t58 -33.5q18 -17 30.5 -39t18.5 -44z" />
    <glyph glyph-name="copyright" unicode="&#xa9;" horiz-adv-x="804" 
d="M402 68q56 0 105.5 21.5t86 58.5t58 87t21.5 108t-21.5 108t-58 87t-86 58.5t-105.5 21.5q-57 0 -106 -21.5t-86 -58.5t-58 -87.5t-21 -107.5t21 -107.5t58 -87.5t86 -58.5t106 -21.5zM402 -12q-75 0 -140.5 28t-114 76t-77 112.5t-28.5 138.5q0 73 28.5 138t77 113.5
t114 76.5t140.5 28q73 0 138.5 -28t115 -76.5t78 -113.5t28.5 -138q0 -74 -28.5 -138.5t-78 -112.5t-115 -76t-138.5 -28zM573 288q0 -32 -15 -64.5t-33 -50.5q-20 -19 -49.5 -30.5t-64.5 -11.5q-70 0 -114 39q-24 21 -43 61.5t-19 105.5q0 72 20 116.5t46 66.5
q27 23 56.5 29t54.5 6q26 0 53 -6.5t52 -27.5q18 -15 28.5 -33.5t16.5 -36.5t7.5 -34.5t1.5 -27.5l-103 -7q0 16 -3.5 39t-16.5 37q-5 5 -14.5 9.5t-23.5 4.5q-8 0 -16.5 -3t-16.5 -12q-9 -10 -14 -26.5t-7.5 -34t-3 -33.5t-0.5 -25q0 -27 2 -45.5t5 -30.5t6.5 -18.5
t5.5 -9.5q6 -8 16 -14t25 -6t24 7t14 12q9 12 13 30t6 31z" />
    <glyph glyph-name="guillemotleft" unicode="&#xab;" horiz-adv-x="457" 
d="M156 83l-105 181l105 179h75l-63 -179l63 -180zM332 83l-106 181l106 179h74l-62 -179l62 -180z" />
    <glyph glyph-name="logicalnot" unicode="&#xac;" horiz-adv-x="515" 
d="M331 165h-296v134h445v-299h-149v165z" />
    <glyph glyph-name="registered" unicode="&#xae;" horiz-adv-x="804" 
d="M402 68q56 0 105.5 21.5t86 58.5t58 87t21.5 108t-21.5 108t-58 87t-86 58.5t-105.5 21.5q-57 0 -106 -21.5t-86 -58.5t-58 -87.5t-21 -107.5t21 -107.5t58 -87.5t86 -58.5t106 -21.5zM402 -12q-75 0 -140.5 28t-114 76t-77 112.5t-28.5 138.5q0 73 28.5 138t77 113.5
t114 76.5t140.5 28q73 0 138.5 -28t115 -76.5t78 -113.5t28.5 -138q0 -74 -28.5 -138.5t-78 -112.5t-115 -76t-138.5 -28zM367 371h25q10 0 22.5 3t20.5 17q3 6 5.5 15.5t2.5 15.5q0 8 -2 18t-9 18q-7 9 -16.5 12t-27.5 3h-21v-102zM427 549q21 0 48 -10t43 -25
q18 -17 26 -43t8 -48q0 -32 -15 -62.5t-46 -44.5l77 -179h-123l-52 159h-26v-159h-112v412h172z" />
    <glyph glyph-name="degree" unicode="&#xb0;" horiz-adv-x="530" 
d="M265 614q-18 0 -30 -6.5t-19 -14.5q-9 -10 -15 -25.5t-6 -34.5q0 -22 6.5 -36t14.5 -22q10 -11 23 -17t26 -6q14 0 27 6t23 17q9 11 15 27.5t6 30.5t-5 30.5t-16 28.5t-23.5 17t-26.5 5zM265 697q32 0 63 -13t53 -35t35 -53t13 -63t-13 -63t-35 -53t-53 -35t-63 -13
q-30 0 -61.5 12.5t-54.5 35.5q-22 22 -35 53t-13 63t13 63t35 53q23 23 54.5 35.5t61.5 12.5z" />
    <glyph glyph-name="plusminus" unicode="&#xb1;" horiz-adv-x="529" 
d="M54 -12v109h421v-109h-421zM475 397v-108h-154v-145h-114v145h-153v108h153v157h114v-156z" />
    <glyph glyph-name="mu" unicode="&#xb5;" horiz-adv-x="495" 
d="M442 510v-510h-134v70q-2 -10 -6.5 -27t-11.5 -28q-9 -15 -21.5 -20.5t-24.5 -5.5q-16 0 -27.5 7.5t-18.5 18.5t-11.5 28.5t-6.5 26.5v-242h-134v682h142v-321q0 -17 2.5 -37.5t10.5 -31.5q5 -8 15.5 -14t27.5 -6t27.5 6t15.5 14q7 10 10 29t3 59v302h142z" />
    <glyph glyph-name="mu" unicode="&#x3bc;" horiz-adv-x="495" 
d="M442 510v-510h-134v70q-2 -10 -6.5 -27t-11.5 -28q-9 -15 -21.5 -20.5t-24.5 -5.5q-16 0 -27.5 7.5t-18.5 18.5t-11.5 28.5t-6.5 26.5v-242h-134v682h142v-321q0 -17 2.5 -37.5t10.5 -31.5q5 -8 15.5 -14t27.5 -6t27.5 6t15.5 14q7 10 10 29t3 59v302h142z" />
    <glyph glyph-name="paragraph" unicode="&#xb6;" horiz-adv-x="562" 
d="M481 -172h-80v777h-48v-777h-81v438h-36q-29 0 -55.5 2t-49 9.5t-42 22t-34.5 38.5q-17 27 -25 65.5t-8 76.5q0 45 12 86.5t37 68.5q18 19 39 29.5t43 15.5t44.5 5.5t44.5 0.5h239v-858z" />
    <glyph glyph-name="guillemotright" unicode="&#xbb;" horiz-adv-x="457" 
d="M301 443l105 -179l-105 -181h-75l63 181l-63 180zM125 443l106 -179l-106 -181h-74l62 181l-62 180z" />
    <glyph glyph-name="Delta" unicode="&#x394;" horiz-adv-x="665" 
d="M469 126l-136 406l-139 -406h275zM257 686h150l250 -686h-649z" />
    <glyph glyph-name="Delta" unicode="&#x2206;" horiz-adv-x="665" 
d="M469 126l-136 406l-139 -406h275zM257 686h150l250 -686h-649z" />
    <glyph glyph-name="acute" unicode="&#xb4;" horiz-adv-x="479" 
d="M363 766l56 -84l-186 -117l-42 43z" />
    <glyph glyph-name="approxequal" unicode="&#x2248;" 
d="M15 191q18 47 39 74.5t42 42t40.5 19t34.5 4.5t32 -4.5t32.5 -10t28.5 -11.5t20 -9q32 -14 48 -20t36 -6q11 0 19 2.5t15.5 9t15.5 16.5t19 25l75 -52q-11 -28 -24.5 -53t-31.5 -44t-41.5 -30t-54.5 -11q-21 0 -37.5 3t-40.5 14q-38 17 -67.5 29.5t-49.5 12.5
q-23 0 -44 -16.5t-31 -37.5zM15 413q11 27 25 52t32 44.5t42.5 31.5t56.5 12q28 0 54.5 -11.5t58.5 -24.5q31 -13 50 -19t34 -6q16 0 34 12t35 42l75 -53q-17 -44 -36.5 -71t-39.5 -41.5t-39.5 -19.5t-36.5 -5q-28 0 -53.5 9t-49 20.5t-46.5 20.5t-46 9q-26 0 -44 -17
t-31 -37z" />
    <glyph glyph-name="dieresis" unicode="&#xa8;" horiz-adv-x="479" 
d="M380 583h-107v118h107v-118zM204 583h-107v118h107v-118z" />
    <glyph glyph-name="divide" unicode="&#xf7;" horiz-adv-x="529" 
d="M203 106v135h122v-135h-122zM203 445v135h122v-135h-122zM54 289v108h421v-108h-421z" />
    <glyph glyph-name="dotaccent" unicode="&#x2d9;" horiz-adv-x="481" 
d="M301 711v-140h-121v140h121z" />
    <glyph glyph-name="dotlessi" unicode="&#x131;" horiz-adv-x="246" 
d="M194 510v-510h-142v510h142z" />
    <glyph glyph-name="florin" unicode="&#x192;" horiz-adv-x="529" 
d="M456 495l-16 -112h-88l-48 -338q-5 -32 -13.5 -67t-28 -63.5t-53 -47t-87.5 -18.5q-17 0 -34.5 2.5t-26.5 4.5l18 113q9 -2 19.5 -2h21.5q12 0 20.5 3.5t14.5 13t11 28t9 48.5l45 323h-72l15 111h73q4 24 8.5 49.5t12.5 49.5t20 45t30 35q21 17 48.5 23.5t52.5 6.5
q20 0 40 -3.5t37 -8.5l-16 -112q-8 4 -18.5 7t-21.5 3q-8 0 -19.5 -2.5t-21.5 -15.5q-8 -10 -12 -29t-6 -30l-2 -17h88z" />
    <glyph glyph-name="greaterequal" unicode="&#x2265;" 
d="M41 164h445v-136l-445 1v135zM42 334l277 89l-278 91v144l445 -170v-128l-445 -169z" />
    <glyph glyph-name="infinity" unicode="&#x221e;" horiz-adv-x="687" 
d="M293 350q-13 17 -22 28.5t-23 22.5q-8 7 -20.5 13.5t-29.5 6.5q-14 0 -29 -4t-26 -15q-8 -8 -14 -20.5t-6 -31.5q0 -30 19 -51q21 -21 56 -21q20 0 33.5 8.5t23.5 17.5q19 17 27.5 29.5t10.5 16.5zM393 350q11 -17 21 -28.5t19 -19.5q8 -7 22 -15.5t34 -8.5
q15 0 30.5 5.5t26.5 16.5q18 20 18 49q0 22 -7.5 35t-15.5 20q-20 17 -47 17q-20 0 -34.5 -6.5t-25.5 -16.5q-8 -7 -20.5 -21.5t-20.5 -26.5zM345 283q-8 -10 -18 -21.5t-26 -25.5q-26 -22 -55 -35t-67 -13q-32 0 -64.5 12t-57.5 39q-20 23 -29 51t-9 61q0 35 10.5 64
t36.5 53q20 18 49 31t62 13q35 0 68 -14t59 -39l13 -13t24 -29q4 5 12.5 15.5t17.5 19.5q27 28 62 44t75 16q25 0 57.5 -9.5t61.5 -40.5q41 -44 41 -113q0 -39 -14 -69.5t-37 -51t-52.5 -31t-59.5 -10.5q-38 0 -71.5 17t-58.5 43q-5 6 -12 14t-18 22z" />
    <glyph glyph-name="lessequal" unicode="&#x2264;" 
d="M486 28h-445v136h445v-136zM486 514l-278 -91l277 -89l1 -143l-445 169v128l445 170v-144z" />
    <glyph glyph-name="nonbreakingspace" unicode="&#xa0;" horiz-adv-x="233" 
 />
    <glyph glyph-name="notequal" unicode="&#x2260;" horiz-adv-x="529" 
d="M475 481v-109h-137l-28 -58h165v-109h-215l-53 -113l-98 46l31 67h-86v109h137l27 58h-164v109h215l52 113l99 -46l-32 -67h87z" />
    <glyph glyph-name="radical" unicode="&#x221a;" horiz-adv-x="686" 
d="M686 730h-174l-190 -730h-168l-64 266h-90v119h173l30 -112q4 -13 6.5 -25.5t6.5 -43.5q2 -20 3 -29.5t2 -15.5t1.5 -12t2.5 -19h8q16 108 34.5 185.5t35.5 143.5l102 394h281v-121z" />
    <glyph glyph-name="sterling" unicode="&#xa3;" horiz-adv-x="525" 
d="M394 419v-104h-101q3 -30 -1.5 -71t-25.5 -74q-8 -14 -21.5 -28t-27.5 -25h76h21.5t26 2.5t27.5 7.5t26 15q17 14 29.5 35t17.5 43l111 -42q-8 -53 -35.5 -93.5t-62.5 -59.5q-18 -10 -39 -15t-42 -7.5t-41.5 -2.5h-38.5h-284v117h51q14 0 30 2.5t28 10.5q13 9 20.5 25.5
t11.5 35t5 37.5t1 34v26.5t-2 26.5h-79v104h61q-2 15 -4 35t-2 43q0 55 14.5 91.5t34.5 56.5q16 17 49 34.5t89 17.5q38 0 70.5 -10t54.5 -30q20 -19 32 -45t17 -46l-109 -51q-2 7 -5.5 19t-11.5 24q-8 14 -19 21.5t-28 7.5q-8 0 -18 -3t-18 -16q-6 -9 -8 -23t-2 -37
q0 -14 1 -23.5l2 -19t2 -20t2 -26.5h115z" />
    <glyph glyph-name="quotedbl" unicode="&#x22;" horiz-adv-x="530" 
d="M428 686l-19 -302h-94l-20 302h133zM236 686l-20 -302h-94l-20 302h134z" />
    <glyph glyph-name="exclam" unicode="!" horiz-adv-x="354" 
d="M247 152v-152h-141v152h141zM267 686l-44 -481h-92l-44 481h180z" />
    <glyph glyph-name="hyphen" horiz-adv-x="283" 
d="M244 316v-111h-205v111h205z" />
    <glyph glyph-name="afii10051" unicode="&#x402;" horiz-adv-x="640" 
d="M452 686v-118h-176v-177q29 11 64 18.5t69 7.5q33 0 58.5 -7t44.5 -17t31.5 -22t20.5 -21q29 -37 37.5 -80t8.5 -79q0 -34 -7.5 -71t-33.5 -69q-17 -21 -36 -33t-39.5 -19t-41 -9t-39.5 -2q-27 0 -48 3t-41 9l16 116q11 -3 24.5 -5.5t24.5 -2.5q23 0 35.5 7t18.5 16
q5 6 9 20t4 43q0 30 -5 46t-10 24q-12 19 -30 26t-41 7q-24 0 -49 -6t-45 -16v-275h-150v568h-138v118h464z" />
    <glyph glyph-name="afii10052" unicode="&#x403;" horiz-adv-x="455" 
d="M388 904l33 -99l-215 -67l-30 54zM216 0h-150v686h394v-128h-244v-558z" />
    <glyph glyph-name="afii10100" unicode="&#x453;" horiz-adv-x="393" 
d="M329 766l56 -84l-186 -117l-42 43zM389 510v-112h-184v-398h-142v510h326z" />
    <glyph glyph-name="afii10058" unicode="&#x409;" horiz-adv-x="861" 
d="M574 118q14 0 34.5 4.5t34.5 12.5q25 16 29.5 38.5t4.5 42.5q0 19 -5 43t-26 41q-17 13 -36 15.5t-36 2.5h-66v-200h66zM508 686v-250h70q18 0 40.5 -1t45.5 -5t46.5 -12t43.5 -23q27 -20 42.5 -45t23 -50.5t9.5 -48.5t2 -39t-2 -38.5t-9.5 -46.5t-23 -48t-43.5 -43
q-39 -27 -81.5 -31.5t-82.5 -4.5h-231v558h-119v-21q0 -30 -1 -71.5t-3 -84.5t-4.5 -82.5t-5.5 -65.5q-8 -72 -21.5 -113t-30.5 -64t-49 -43t-85 -20q-25 0 -49 7v125q18 -3 38.5 2t35.5 26q12 17 17 36t7 36q7 47 9 98.5t4 97.5q1 27 1.5 38.5t1.5 28t1.5 49t2.5 101.5
l1 48h399z" />
    <glyph glyph-name="afii10059" unicode="&#x40a;" horiz-adv-x="884" 
d="M597 118q14 0 34.5 4.5t34.5 12.5q23 14 28.5 34t5.5 39q0 17 -5 36.5t-26 35.5q-18 14 -36 16t-36 2h-66v-180h66zM216 686v-264h165v264h150v-264h68q44 0 89.5 -6t86.5 -35q27 -20 43 -44t24 -48t10 -46t2 -37q0 -19 -3 -41.5t-11 -45t-23.5 -44.5t-40.5 -39
q-39 -27 -82 -31.5t-82 -4.5h-231v298h-165v-298h-150v686h150z" />
    <glyph glyph-name="afii10061" unicode="&#x40c;" horiz-adv-x="546" 
d="M433 904l33 -99l-215 -67l-30 54zM216 406h51q18 0 29 5t17.5 11.5t9.5 13.5t4 12q4 14 5.5 31.5t5.5 53.5q3 28 6.5 48.5t8.5 37.5q5 14 13 29t25 26q20 14 42.5 16t39.5 2q15 0 25 -1t22 -5v-112h-8q-8 0 -18 -5.5t-15 -36.5l-5 -35t-3.5 -22.5t-2 -13.5t-1.5 -9
q-2 -14 -8.5 -32t-20.5 -34q-8 -9 -19.5 -16.5t-26.5 -12.5v-3q22 -3 43.5 -16t35.5 -39q11 -21 15 -45t6 -45q4 -32 6.5 -47.5t8.5 -25.5q10 -16 29 -12v-124q-13 -5 -23 -5.5t-24 -0.5q-15 0 -31 1.5t-31 7t-28.5 16t-23.5 28.5q-12 23 -16.5 58.5t-9.5 88.5q-3 32 -7 50
t-12 27q-13 15 -32 18t-31 3h-51v-292h-150v686h150v-280z" />
    <glyph glyph-name="afii10060" unicode="&#x40b;" horiz-adv-x="656" 
d="M451 686v-118h-176v-178q41 18 73.5 22.5t49.5 4.5q28 0 50 -5t39 -12.5t29.5 -17t20.5 -17.5q34 -34 43.5 -73.5t9.5 -80.5v-211h-150v190q0 16 -0.5 37.5t-11.5 38.5q-5 8 -20 19.5t-46 11.5q-22 0 -46 -7t-41 -15v-275h-150v568h-138v118h464z" />
    <glyph glyph-name="afii10145" unicode="&#x40f;" horiz-adv-x="582" 
d="M516 686v-686h-157v-140h-136v140h-157v686h150v-558h150v558h150z" />
    <glyph glyph-name="afii10099" unicode="&#x452;" horiz-adv-x="524" 
d="M17 560v82h64v47h142v-47h160v-82h-160v-110q4 8 12 20t22.5 23t36.5 19t54 8q39 0 64.5 -13t40.5 -36q19 -28 22 -67t3 -80v-292q0 -19 -0.5 -39.5t-4.5 -41.5t-11.5 -41.5t-21.5 -38.5t-30.5 -29.5t-33 -17.5t-33 -8t-31.5 -2q-13 0 -26 1.5t-33 5.5v116q13 -4 29 -4
q22 0 34 8t16 28q1 5 1.5 13t1 16.5t0.5 16.5v12v295q0 26 -1 40t-5 22t-14.5 16.5t-30.5 8.5t-31 -7t-17 -15q-13 -18 -13 -43.5v-51.5v-292h-142v560h-64z" />
    <glyph glyph-name="afii10106" unicode="&#x459;" horiz-adv-x="703" 
d="M435 100h33q9 0 22 2.5t26 14.5q14 13 17 27t3 25q0 15 -4 29t-17 25q-12 11 -22.5 13t-22.5 2h-35v-138zM435 510v-187h64q16 0 33.5 -1.5t35.5 -6.5t36 -14t33 -25q27 -28 34 -60t7 -53q0 -50 -15 -79t-31 -43q-21 -20 -52.5 -30.5t-61.5 -10.5h-225v405h-79l-1 -67
q-1 -51 -4.5 -100.5t-11.5 -97.5q-3 -18 -6.5 -36.5t-10.5 -35.5t-17 -32t-25 -25q-15 -11 -37.5 -16.5t-42.5 -5.5q-18 0 -31.5 3.5t-21.5 7.5v107q18 -3 30.5 1t21 11.5t13 16t7.5 15.5q3 8 6 21t6 34t5 52t4 76q0 12 0.5 27.5t1 30.5t1 28t0.5 19l1 71h333z" />
    <glyph glyph-name="afii10107" unicode="&#x45a;" horiz-adv-x="716" 
d="M448 100h33q11 0 24.5 2t23.5 10q8 7 14 20t6 32q0 14 -3 24.5t-14 19.5q-12 11 -25.5 13t-23.5 2h-35v-123zM306 323v187h142v-187h64q16 0 33.5 -1.5t35.5 -6.5t36 -14t33 -25q27 -28 34 -60t7 -53q0 -50 -15 -79t-31 -43q-21 -20 -52.5 -30.5t-61.5 -10.5h-225v223
h-112v-223h-142v510h142v-187h112z" />
    <glyph glyph-name="afii10109" unicode="&#x45c;" horiz-adv-x="475" 
d="M356 766l56 -84l-186 -117l-42 43zM195 314h48q11 0 23 3t18 11q5 5 7.5 15t4.5 30q2 15 3.5 33.5t6.5 35.5q3 12 10 26.5t21 26.5q17 14 37 17.5t33 3.5q14 0 26 -2t21 -4v-90q-10 3 -18 -1.5t-13 -12.5q-2 -3 -4 -10t-4 -22l-4 -35q-2 -15 -9 -29t-17 -23
q-15 -14 -35 -17v-2q14 -3 23.5 -9t15.5 -12.5t9 -13t5 -9.5q6 -16 8.5 -31.5t6.5 -45.5q2 -11 3 -19t6 -13q5 -6 15 -9.5t23 0.5v-106q-8 -2 -21.5 -5t-31.5 -3q-17 0 -35 3.5t-31 11.5q-27 16 -37 42.5t-13 48.5q-3 21 -4.5 40t-3.5 35q-2 17 -9.5 29t-35.5 12h-48v-214
h-142v510h142v-196z" />
    <glyph glyph-name="afii10108" unicode="&#x45b;" horiz-adv-x="524" 
d="M224 689v-47h160v-82h-160v-104q8 10 17.5 20.5t18.5 17.5q23 17 49 21.5t41 4.5q16 0 42 -5t49 -28q15 -15 22.5 -34.5t11 -40.5t3.5 -42.5v-42.5v-327h-142v327q0 20 -0.5 36t-7.5 26q-5 8 -15.5 13.5t-27.5 5.5q-18 0 -29 -5.5t-16 -11.5q-11 -12 -13.5 -28t-2.5 -31
v-332h-142v560h-65v82h65v47h142z" />
    <glyph glyph-name="afii10193" unicode="&#x45f;" horiz-adv-x="494" 
d="M53 510h142v-398h104v398h142v-510h-128v-130h-132v130h-128v510z" />
    <glyph glyph-name="afii10062" unicode="&#x40e;" horiz-adv-x="499" 
d="M426 890q0 -22 -6 -39t-13 -29t-14.5 -19.5l-10.5 -10.5q-5 -4 -14 -10.5t-23.5 -12.5t-34.5 -10t-47 -4t-47 4t-34.5 10t-23.5 12.5t-14 10.5l-10.5 10.5t-14.5 19.5t-13 29t-6 39h108q-2 -25 12 -40q5 -5 14.5 -10.5t28.5 -5.5t28.5 5.5t14.5 10.5q14 15 12 40h108z
M158 686l115 -329h4l98 329h139l-168 -494q-14 -39 -25.5 -66.5t-21 -46t-18.5 -29.5t-16 -18q-29 -27 -65 -35t-69 -8q-21 0 -39 3t-36 8v124q27 -6 57 -6q14 0 28 2.5t28 13.5q10 8 18 20.5t11 29.5l-208 502h168z" />
    <glyph glyph-name="afii10110" unicode="&#x45e;" horiz-adv-x="383" 
d="M343 692q0 -24 -8 -49.5t-23 -42.5t-43 -28.5t-71 -11.5t-71 11.5t-43 28.5t-23 42.5t-8 49.5h107q0 -8 1.5 -19t5.5 -18q6 -11 14.5 -14t16.5 -3t16.5 3t14.5 14q4 7 5.5 18t1.5 19h107zM136 510l69 -312l66 312h129l-154 -518q-13 -43 -25.5 -75t-30.5 -55
q-24 -29 -50.5 -38.5t-55.5 -9.5q-39 0 -69 10v116q13 -3 22.5 -3.5t20.5 -0.5q16 0 32 3.5t30 20.5q6 8 10.5 18t6.5 20l-151 512h150z" />
    <glyph glyph-name="afii10057" unicode="&#x408;" horiz-adv-x="334" 
d="M271 686v-478q0 -64 -12 -112.5t-54 -77.5q-15 -10 -32 -16t-33.5 -9t-30.5 -3.5t-23 -0.5q-27 0 -46 3t-45 8v125q27 -4 41.5 -4.5t18.5 -0.5q17 0 25.5 2t13.5 5q10 6 15.5 15.5t8 21.5t3 24t0.5 23v475h150z" />
    <glyph glyph-name="afii10050" unicode="&#x490;" horiz-adv-x="455" 
d="M216 0h-150v686h268v140h126v-268h-244v-558z" />
    <glyph glyph-name="afii10023" unicode="&#x401;" horiz-adv-x="493" 
d="M484 686v-118h-268v-159h208v-118h-208v-173h268v-118h-418v686h418zM419 755h-107v118h107v-118zM238 755h-107v118h107v-118z" />
    <glyph glyph-name="afii10053" unicode="&#x404;" horiz-adv-x="559" 
d="M533 201q-8 -63 -30.5 -103t-53.5 -65q-32 -26 -67 -35t-75 -9q-19 0 -40.5 2t-44.5 9t-46 20t-44 34q-24 24 -41.5 57t-28.5 70.5t-16 78t-5 80.5q0 39 5 81t16 82t30 74.5t46 60.5q28 26 68 42.5t95 16.5q40 0 80 -11.5t76 -44.5q21 -20 35.5 -43.5t23 -46.5
t12.5 -44.5t6 -36.5l-135 -18q-2 21 -8.5 45.5t-17.5 40.5t-30 25.5t-43 9.5q-32 0 -50 -15t-28 -33q-14 -25 -18.5 -53t-6.5 -60h153v-118h-155q0 -18 2 -38.5t5.5 -40t9 -36.5t13.5 -28q9 -13 27.5 -25.5t50.5 -12.5q22 0 38.5 7.5t27.5 18.5q14 15 20 37.5t8 40.5z" />
    <glyph glyph-name="afii10056" unicode="&#x407;" horiz-adv-x="306" 
d="M300 755h-103v116h103v-116zM109 755h-103v116h103v-116zM228 686v-686h-150v686h150z" />
    <glyph glyph-name="afii10055" horiz-adv-x="282" 
d="M216 686v-686h-150v686h150z" />
    <glyph glyph-name="afii10103" unicode="&#x456;" horiz-adv-x="249" 
d="M52 552v141h145v-141h-145zM195 510v-510h-142v510h142z" />
    <glyph glyph-name="afii10098" unicode="&#x491;" horiz-adv-x="393" 
d="M257 510v130h132v-242h-184v-398h-142v510h194z" />
    <glyph glyph-name="afii10071" unicode="&#x451;" horiz-adv-x="476" 
d="M311 313q1 61 -18 88q-8 11 -21 18t-28 7q-14 0 -27 -6.5t-23 -22.5q-9 -15 -11.5 -35.5t-4.5 -48.5h133zM177 231q-2 -55 2.5 -81t12.5 -38q11 -17 25.5 -22.5t29.5 -5.5q9 0 24 3.5t28 20.5q5 7 8.5 16t6 18.5t3.5 18t1 14.5l127 -8q-5 -27 -18 -60t-36 -58
q-17 -19 -36.5 -30.5t-39.5 -18t-39 -8.5t-35 -2q-15 0 -32.5 2t-36.5 7.5t-38 16.5t-37 29q-34 35 -50 89t-16 116q0 59 15 116t49 94q20 21 55 40.5t91 19.5q62 0 102 -26t64 -67q15 -25 23 -53.5t11.5 -55.5t4 -50.5t-0.5 -36.5h-268zM379 577h-107v118h107v-118z
M203 577h-107v118h107v-118z" />
    <glyph glyph-name="afii61352" unicode="&#x2116;" horiz-adv-x="913" 
d="M728 620q-8 0 -18.5 -5t-18.5 -24q-5 -14 -8 -39t-3 -42t3 -42t8 -39q8 -19 18.5 -24t18.5 -5t18.5 5t18.5 24q5 14 8 39t3 42t-3 42t-8 39q-8 19 -18.5 24t-18.5 5zM728 686q29 0 54 -12t42 -32q3 -4 9.5 -13.5t13 -25.5t11.5 -39t5 -54q0 -54 -14 -88t-34 -53.5
t-44 -27t-43 -7.5q-29 0 -54 12t-42 32q-3 4 -9.5 13.5t-13 25.5t-11.5 39t-5 54t5 54t11.5 39t13 25.5t9.5 13.5q17 20 42 32t54 12zM857 274v-83h-257v83h257zM227 686l177 -426v426h116v-686h-135l-209 496v-496h-116v686h167z" />
    <glyph glyph-name="afii10101" unicode="&#x454;" horiz-adv-x="470" 
d="M309 221h-136q-1 -17 1.5 -43t13.5 -47q12 -26 29 -33.5t37 -7.5q18 0 31.5 6t23.5 23q6 11 9 24t3 25l124 -13q-2 -37 -17.5 -71t-40.5 -55q-30 -26 -67 -32.5t-71 -6.5q-16 0 -35.5 1.5t-40 7.5t-41.5 17.5t-39 30.5q-21 22 -33.5 49t-18.5 55.5t-8 55t-2 46.5
q0 23 2 49.5t8.5 53t18.5 52t32 48.5q35 39 77.5 51.5t81.5 12.5q15 0 33 -2t36 -7t36 -15t34 -25q22 -21 36.5 -51t17.5 -65l-120 -13q-2 14 -6.5 28.5t-11.5 24.5q-12 17 -27 21t-28 4q-20 0 -36 -8t-27 -29q-8 -15 -11.5 -38.5t-3.5 -41.5h136v-82z" />
    <glyph glyph-name="afii10105" unicode="&#x458;" horiz-adv-x="246" 
d="M56 552v141h142v-141h-142zM199 510v-513q0 -15 -0.5 -34t-3.5 -38.5t-9.5 -38.5t-18.5 -34q-11 -13 -25 -20.5t-27.5 -11.5t-26 -5t-21.5 -1q-17 0 -36.5 1.5t-39.5 5.5v116q6 -1 9.5 -1h7.5q11 0 22.5 1.5t19.5 15.5q5 8 6 21t1 24v512h142z" />
    <glyph glyph-name="afii10054" unicode="&#x405;" 
d="M360 489q-2 8 -9.5 25t-20.5 31q-16 17 -33.5 22.5t-34.5 5.5q-11 0 -21.5 -2.5t-23.5 -10.5q-26 -17 -26 -51q0 -20 8.5 -30.5t22.5 -19.5q20 -14 41.5 -22.5t45.5 -17.5q32 -12 63.5 -26t57.5 -36q31 -26 49.5 -62.5t18.5 -86.5q0 -54 -21 -95.5t-52 -67.5
q-24 -20 -65.5 -38t-104.5 -18q-64 0 -107.5 21t-71.5 52q-26 29 -40 61.5t-19 53.5l131 39q2 -11 9 -30t19 -34q19 -24 42 -31.5t43 -7.5q14 0 29 2.5t29 13.5q10 8 18.5 21t8.5 34q0 33 -24 54q-14 12 -32 19t-39 15q-60 21 -91.5 38t-50.5 33q-22 18 -34.5 37.5t-19 38.5
t-8.5 35.5t-2 30.5q0 56 18 93.5t44 63.5q32 31 71 43t84 12q56 0 94 -14t61 -33q26 -22 43 -52t24 -61z" />
    <glyph glyph-name="afii10102" unicode="&#x455;" horiz-adv-x="423" 
d="M288 357q-2 7 -6.5 19t-15.5 25q-21 25 -51 25q-8 0 -17 -2t-17 -10t-10 -16t-2 -15q0 -28 22 -44q8 -6 21.5 -11.5t41.5 -15.5q27 -10 55 -21t49 -29q20 -17 33 -42.5t13 -61.5q0 -32 -10.5 -61t-29.5 -50q-23 -26 -61.5 -42t-91.5 -16q-36 0 -77 11t-67 37
q-23 22 -33.5 52.5t-13.5 51.5l113 18q2 -11 7 -24t15 -25q15 -18 30 -22.5t30 -4.5q12 0 22.5 2.5t19.5 11.5t11 17.5t2 16.5q0 25 -22 42q-14 11 -29.5 16t-29.5 9q-28 8 -55.5 20t-51.5 34q-26 23 -36 50.5t-10 59.5q0 42 15.5 69t32.5 42q18 17 49.5 32t82.5 15
q26 0 59 -7.5t64 -36.5q19 -18 31.5 -41t18.5 -48z" />
    <glyph glyph-name="afii10104" unicode="&#x457;" horiz-adv-x="270" 
d="M268 577h-99v116h99v-116zM101 577h-99v116h99v-116zM206 510v-510h-142v510h142z" />
    <glyph glyph-name="afii10017" unicode="&#x410;" horiz-adv-x="524" 
d="M247 539l-66 -279h135zM336 686l196 -686h-154l-34 142h-193l-33 -142h-139l205 686h152z" />
    <glyph glyph-name="afii10018" unicode="&#x411;" horiz-adv-x="567" 
d="M278 112q14 0 36 3.5t35 11.5q14 8 24 28t10 53q0 34 -10 52t-21 26q-16 11 -36.5 13.5t-37.5 2.5h-62v-190h62zM495 686v-118h-279v-154h64q21 0 44 -1t46.5 -5t46.5 -12t43 -22q9 -6 22 -19t25 -34t21 -51t9 -71q0 -37 -8 -64.5t-19.5 -47t-24.5 -32t-23 -19.5
q-39 -27 -84.5 -31.5t-84.5 -4.5h-227v686h429z" />
    <glyph glyph-name="afii10019" unicode="&#x412;" horiz-adv-x="586" 
d="M290 112q20 0 42.5 3t37.5 18q13 13 18 34t5 39q0 34 -10.5 51.5t-20.5 24.5q-16 11 -35.5 13.5t-36.5 2.5h-74v-186h74zM265 410q17 0 39.5 2t42.5 16t24 32t4 33q0 18 -5 34t-22 30q-18 14 -37.5 15.5t-34.5 1.5h-60v-164h49zM322 686q32 0 55.5 -3.5t40 -8t27.5 -10.5
t18 -10q11 -8 22.5 -20t21.5 -30t16 -41.5t6 -53.5q0 -20 -5 -50t-28 -58q-6 -7 -21.5 -21t-43.5 -22q30 -8 47.5 -23t25.5 -23q20 -23 31.5 -56t11.5 -67q0 -36 -14.5 -75t-39.5 -63q-19 -19 -41.5 -29t-44.5 -15t-42 -6t-35 -1h-264v686h256z" />
    <glyph glyph-name="afii10020" unicode="&#x413;" horiz-adv-x="455" 
d="M216 0h-150v686h394v-128h-244v-558z" />
    <glyph glyph-name="afii10021" unicode="&#x414;" horiz-adv-x="603" 
d="M264 562l-1 -51q0 -13 -1 -35.5t-3.5 -51.5t-6 -62.5t-9.5 -67.5q-8 -41 -18.5 -81t-30.5 -89h177v438h-107zM521 686v-562h67v-268h-135v144h-312v-144h-135v268h53q11 27 22 59.5t18 57.5q11 38 18.5 81t12.5 84q8 72 8.5 127.5t0.5 85.5v67h382z" />
    <glyph glyph-name="afii10022" unicode="&#x415;" horiz-adv-x="493" 
d="M484 686v-118h-268v-159h208v-118h-208v-173h268v-118h-418v686h418z" />
    <glyph glyph-name="afii10024" unicode="&#x416;" horiz-adv-x="758" 
d="M452 406h31q16 0 27 4.5t17.5 11t9.5 14t4 12.5q3 14 4.5 32t4.5 53q4 41 6 58.5t5 27.5q6 23 17 35.5t21 19.5q20 14 42.5 16t39.5 2q15 0 25 -1t22 -5v-112h-8q-3 0 -8 -0.5t-10 -4.5t-9 -13t-6 -25q-1 -12 -1.5 -19.5t-1.5 -15.5t-2 -18t-3 -26q-2 -15 -6.5 -32
t-20.5 -34q-10 -11 -23 -18t-27 -11v-3q17 -2 42.5 -13t42.5 -42q11 -21 14.5 -44.5t5.5 -45.5q4 -37 5.5 -51t6.5 -22q5 -10 12.5 -12t16.5 0v-124q-13 -5 -23 -5.5t-24 -0.5t-30 1.5t-32 7t-29.5 16t-22.5 28.5q-2 5 -5 13t-6 24.5t-6 42.5t-6 67q-2 22 -4.5 43.5
t-13.5 33.5q-13 15 -32 18t-31 3h-31v-292h-146v292h-31q-12 0 -31 -3t-32 -18q-11 -12 -13.5 -33.5t-4.5 -43.5q-3 -41 -6 -67t-6 -42.5t-6 -24.5t-5 -13q-9 -18 -22.5 -28.5t-29.5 -16t-32 -7t-30 -1.5t-24 0.5t-23 5.5v124q9 -2 16.5 0t12.5 12q5 8 6.5 22t5.5 51
q2 22 5.5 45.5t14.5 44.5q17 31 42.5 42t42.5 13v3q-14 4 -27 11t-23 18q-16 17 -20.5 34t-6.5 32q-2 16 -3 26t-2 18t-1.5 15.5t-1.5 19.5q-2 16 -6 25t-9 13t-10 4.5t-8 0.5h-8v112q12 4 22 5t25 1q17 0 39.5 -2t42.5 -16q10 -7 21 -19.5t17 -35.5q3 -10 5 -27.5t6 -58.5
q3 -35 4.5 -53t4.5 -32q1 -5 4 -12.5t9.5 -14t17 -11t27.5 -4.5h31v280h146v-280z" />
    <glyph glyph-name="afii10025" unicode="&#x417;" horiz-adv-x="542" 
d="M251 413q18 0 37 3.5t34 20.5q11 13 14.5 27.5t3.5 30.5q0 14 -3 28.5t-17 28.5q-10 9 -24.5 15t-36.5 6q-26 0 -41.5 -8t-23.5 -16q-14 -14 -21.5 -36.5t-8.5 -43.5l-130 16q4 39 14.5 68t23 50t26.5 34.5t26 21.5q18 12 37.5 19.5t39 11.5t38 5.5t33.5 1.5q35 0 77 -8
t76 -36q28 -23 46.5 -60t18.5 -85q0 -21 -5.5 -46.5t-16.5 -44.5q-9 -16 -28 -33t-51 -25v-2q17 -4 36.5 -13.5t39.5 -31.5q23 -26 30.5 -53.5t7.5 -59.5q0 -15 -2 -34.5t-8 -40t-18 -41.5t-32 -39q-21 -19 -43.5 -30t-46 -16t-46.5 -6.5t-44 -1.5q-45 0 -86.5 7.5
t-78.5 37.5q-40 33 -55.5 80t-17.5 98l138 12q0 -13 3 -32t9 -33q7 -16 17.5 -25t22 -13.5t23 -6t21.5 -1.5q16 0 36.5 4t35.5 22q18 23 18 62q0 47 -22 71q-15 16 -36.5 19t-32.5 3h-68v118h61z" />
    <glyph glyph-name="afii10026" unicode="&#x418;" horiz-adv-x="619" 
d="M216 686v-353q0 -37 -1 -54t-3 -31q6 23 11.5 37t10.5 25l169 327v49h150v-686h-150v355q0 39 1 56.5t3 32.5q-9 -29 -13.5 -42t-8.5 -20l-169 -327v-55h-150v686h150z" />
    <glyph glyph-name="afii10027" unicode="&#x419;" horiz-adv-x="611" 
d="M212 686v-353q0 -37 -1 -54t-3 -31q6 23 11.5 37t10.5 25l169 327v49h146v-686h-146v355q0 39 1 56.5t3 32.5q-9 -29 -13.5 -42t-8.5 -20l-169 -327v-55h-146v686h146zM468 872q0 -35 -13.5 -61.5t-30.5 -40.5q-22 -20 -53.5 -28.5t-65.5 -8.5t-65.5 8.5t-53.5 28.5
q-17 14 -30.5 40.5t-13.5 61.5h108q-1 -11 2.5 -23t9.5 -19q5 -5 14.5 -10.5t28.5 -5.5t28.5 5.5t14.5 10.5q6 7 9.5 19t2.5 23h108z" />
    <glyph glyph-name="afii10028" unicode="&#x41a;" horiz-adv-x="546" 
d="M216 406h51q18 0 29 5t17.5 11.5t9.5 13.5t4 12q4 14 5.5 31.5t5.5 53.5q3 28 6.5 48.5t8.5 37.5q5 14 13 29t25 26q20 14 42.5 16t39.5 2q15 0 25 -1t22 -5v-112h-8q-8 0 -18 -5.5t-15 -36.5l-5 -35t-3.5 -22.5t-2 -13.5t-1.5 -9q-2 -14 -8.5 -32t-20.5 -34
q-8 -9 -19.5 -16.5t-26.5 -12.5v-3q22 -3 43.5 -16t35.5 -39q11 -21 15 -45t6 -45q4 -32 6.5 -47.5t8.5 -25.5q10 -16 29 -12v-124q-13 -5 -23 -5.5t-24 -0.5q-15 0 -31 1.5t-31 7t-28.5 16t-23.5 28.5q-12 23 -16.5 58.5t-9.5 88.5q-3 32 -7 50t-12 27q-13 15 -32 18t-31 3
h-51v-292h-150v686h150v-280z" />
    <glyph glyph-name="afii10029" unicode="&#x41b;" horiz-adv-x="574" 
d="M508 686v-686h-150v558h-119v-21q0 -30 -1 -71.5t-3 -84.5t-4.5 -82.5t-5.5 -65.5q-8 -72 -21.5 -113t-30.5 -64t-49 -43t-85 -20q-25 0 -49 7v125q18 -3 38.5 2t35.5 26q12 17 17 36t7 36q7 47 9 98.5t4 97.5q1 27 1.5 38.5t1.5 28t1.5 49t2.5 101.5l1 48h399z" />
    <glyph glyph-name="afii10030" unicode="&#x41c;" horiz-adv-x="772" 
d="M286 686l98 -424l110 424h212v-686h-140v574l-140 -574h-110l-128 574v-574h-122v686h220z" />
    <glyph glyph-name="afii10031" unicode="&#x41d;" horiz-adv-x="597" 
d="M216 686v-276h165v276h150v-686h-150v282h-165v-282h-150v686h150z" />
    <glyph glyph-name="afii10032" unicode="&#x41e;" horiz-adv-x="582" 
d="M291 573q-18 0 -34.5 -8.5t-29.5 -29.5q-5 -8 -9.5 -21.5t-8.5 -35.5t-6 -54.5t-2 -80.5t2 -81t6 -55.5t8.5 -35.5t9.5 -21q14 -23 32 -30t32 -7q25 0 41 11.5t24 25.5q3 6 7.5 17t8.5 33t6.5 56.5t2.5 86.5q0 53 -3 87.5t-6.5 56.5t-8 32.5t-7.5 15.5q-14 25 -33 31.5
t-32 6.5zM291 697q61 0 101 -20.5t66 -46.5q29 -30 45.5 -70.5t25 -81t10.5 -76.5t2 -59q0 -178 -64.5 -266t-185.5 -88q-17 0 -37.5 2.5t-42.5 9.5t-44 20.5t-43 34.5q-28 28 -44.5 63.5t-25 73t-11 76t-2.5 74.5t2.5 74.5t11 76t25 72.5t44.5 64q21 21 43 34.5t44 20.5
t42.5 9.5t37.5 2.5z" />
    <glyph glyph-name="afii10033" unicode="&#x41f;" horiz-adv-x="592" 
d="M376 558h-160v-558h-150v686h460v-686h-150v558z" />
    <glyph glyph-name="afii10034" unicode="&#x420;" horiz-adv-x="525" 
d="M216 372h48q16 0 32 2.5t27 9.5q5 3 11.5 9t12.5 16.5t10 26t4 38.5q0 10 -1 22.5t-5 25t-12 23.5t-21 19q-5 3 -18 7t-40 4h-48v-203zM292 686q44 0 89.5 -9t81.5 -44q23 -23 38.5 -62t15.5 -99q0 -38 -8 -77t-28 -67q-18 -25 -41 -39.5t-48.5 -22t-52 -10t-50.5 -2.5
h-73v-254h-150v686h226z" />
    <glyph glyph-name="afii10035" unicode="&#x421;" horiz-adv-x="563" 
d="M539 241q-6 -54 -22 -100.5t-48 -81.5q-21 -23 -44 -36.5t-45 -21t-42.5 -10t-36.5 -2.5q-60 0 -101.5 19.5t-67.5 45.5q-24 24 -41.5 57t-28.5 70.5t-16 78t-5 81.5q0 39 5 80.5t16 81.5t30 74.5t46 60.5q21 20 44.5 31.5t45 17.5t41 8t33.5 2t32.5 -1.5t39 -7.5t42 -17
t41.5 -30q36 -33 56.5 -86.5t22.5 -123.5l-137 -11q-2 32 -7.5 66.5t-27.5 58.5q-11 12 -27 20t-36 8t-35 -9t-25 -20q-13 -16 -21 -41.5t-12 -55t-5.5 -59.5t-1.5 -54q0 -44 3 -75t7.5 -52.5t10 -34.5t10.5 -21q25 -38 71 -38q20 0 35.5 7.5t29.5 27.5t21.5 45t9.5 57z" />
    <glyph glyph-name="afii10036" unicode="&#x422;" horiz-adv-x="423" 
d="M426 686v-128h-141v-558h-150v558h-138v128h429z" />
    <glyph glyph-name="afii10037" unicode="&#x423;" horiz-adv-x="499" 
d="M158 686l115 -329h4l98 329h139l-168 -494q-14 -39 -25.5 -66.5t-21 -46t-18.5 -29.5t-16 -18q-29 -27 -65 -35t-69 -8q-21 0 -39 3t-36 8v124q27 -6 57 -6q14 0 28 2.5t28 13.5q10 8 18 20.5t11 29.5l-208 502h168z" />
    <glyph glyph-name="afii10038" unicode="&#x424;" horiz-adv-x="722" 
d="M296 526q-36 -1 -56.5 -15.5t-30.5 -27.5q-20 -27 -24 -61t-4 -68q0 -33 3.5 -63.5t17.5 -52.5q11 -16 34.5 -31.5t59.5 -14.5v334zM426 192q36 -1 59.5 14.5t34.5 31.5q14 22 17.5 52.5t3.5 63.5q0 34 -4 68t-24 61q-10 13 -30.5 27.5t-56.5 15.5v-334zM432 631l19 -1
q50 -2 88 -19.5t64 -40.5t42 -49t25 -53t12 -55t3 -54q0 -22 -2.5 -48.5t-10.5 -54.5t-22 -55.5t-38 -50.5q-19 -18 -40 -30t-42 -18.5t-41.5 -9.5t-38.5 -4l-18 -1v-87h-142v87l-18 1q-18 1 -38.5 4t-41.5 9.5t-42 18.5t-40 30q-24 23 -38 50.5t-22 55.5t-10.5 54.5
t-2.5 48.5q0 26 3 54t12 55t25 53t42 49t64 40.5t88 19.5l19 1v75h142v-75z" />
    <glyph glyph-name="afii10039" unicode="&#x425;" horiz-adv-x="493" 
d="M173 686l82 -178l86 178h144l-162 -310l186 -376h-168l-100 224l-113 -224h-144l189 352l-168 334h168z" />
    <glyph glyph-name="afii10040" unicode="&#x426;" horiz-adv-x="603" 
d="M516 686v-558h63v-276h-131v148h-382v686h150v-558h150v558h150z" />
    <glyph glyph-name="afii10041" unicode="&#x427;" horiz-adv-x="564" 
d="M348 282q-20 -8 -51 -16t-72 -8q-28 0 -49.5 5t-38 12.5t-28.5 16t-19 16.5q-15 16 -24 35.5t-13.5 40t-6 41.5t-1.5 40v221h150v-202q0 -20 2 -40t12 -34q13 -18 32 -22t31 -4q21 0 39 4t37 15v283h150v-686h-150v282z" />
    <glyph glyph-name="afii10042" unicode="&#x428;" horiz-adv-x="840" 
d="M493 686v-558h135v558h146v-686h-708v686h146v-558h135v558h146z" />
    <glyph glyph-name="afii10043" unicode="&#x429;" horiz-adv-x="861" 
d="M493 686v-558h135v558h146v-558h63v-276h-131v148h-640v686h146v-558h135v558h146z" />
    <glyph glyph-name="afii10044" unicode="&#x42a;" horiz-adv-x="632" 
d="M340 118q14 0 34.5 4.5t34.5 12.5q25 16 29.5 38.5t4.5 42.5q0 19 -5 43t-26 41q-17 13 -36 15.5t-36 2.5h-66v-200h66zM344 436q18 0 40.5 -1t45.5 -5t46.5 -12t43.5 -23q27 -20 42.5 -45t23 -50.5t9.5 -48.5t2 -39t-2 -38.5t-9.5 -46.5t-23 -48t-43.5 -43
q-39 -27 -81.5 -31.5t-82.5 -4.5h-227v558h-133v128h279v-250h70z" />
    <glyph glyph-name="afii10045" unicode="&#x42b;" horiz-adv-x="798" 
d="M270 118q18 0 37.5 4.5t33.5 12.5q25 16 29.5 38t4.5 43q0 20 -5 43.5t-26 40.5q-17 13 -37 15.5t-37 2.5h-62v-200h62zM272 436q18 0 40 -1t45.5 -5t46.5 -12t43 -23q27 -20 42 -45t22.5 -50.5t9.5 -48.5t2 -38q0 -17 -2 -39t-9.5 -46.5t-23 -48.5t-43.5 -43
q-39 -27 -81 -31.5t-81 -4.5h-217v686h142v-250h64zM732 686v-686h-142v686h142z" />
    <glyph glyph-name="afii10046" unicode="&#x42c;" horiz-adv-x="565" 
d="M278 118q14 0 34.5 4.5t34.5 12.5q25 16 29.5 38.5t4.5 42.5q0 19 -5 43t-26 41q-17 13 -36 15.5t-36 2.5h-66v-200h66zM282 436q18 0 40.5 -1t45.5 -5t46.5 -12t43.5 -23q27 -20 42.5 -45t23 -50.5t9.5 -48.5t2 -39t-2 -38.5t-9.5 -46.5t-23 -48t-43.5 -43
q-39 -27 -81.5 -31.5t-82.5 -4.5h-227v686h146v-250h70z" />
    <glyph glyph-name="afii10047" unicode="&#x42d;" horiz-adv-x="559" 
d="M162 217q2 -23 7 -43t19 -35q16 -17 34 -21.5t32 -4.5q15 0 38.5 6t41.5 32q7 11 13 28t9.5 36.5t5.5 40t2 38.5h-155v118h153q-2 32 -6.5 60t-18.5 53q-10 17 -28.5 32.5t-52.5 15.5q-29 0 -46 -12t-25 -23q-11 -15 -17.5 -40t-7.5 -46l-135 18q4 37 12 65t18 48.5
t21.5 34.5t21.5 23q40 37 81.5 46.5t78.5 9.5q38 0 81.5 -11.5t81.5 -47.5q27 -26 46 -60.5t30 -74.5t16 -82t5 -81q0 -40 -5 -80.5t-16 -78t-28.5 -70.5t-41.5 -57q-21 -21 -44 -34t-45.5 -20t-44.5 -9t-41 -2q-36 0 -75 7t-75 37q-38 32 -53.5 76.5t-22.5 91.5z" />
    <glyph glyph-name="afii10048" unicode="&#x42e;" horiz-adv-x="837" 
d="M552 573q-41 0 -65 -38q-3 -6 -7.5 -16.5t-8.5 -32t-7 -56t-3 -87.5q0 -54 3 -88.5t7 -56t8.5 -32.5t7.5 -16q11 -17 28 -27t37 -10t36.5 10t27.5 27q8 14 13 40t7.5 55t3 56t0.5 42q0 16 -0.5 42.5t-3 55t-7.5 54t-13 40.5q-13 22 -30.5 30t-33.5 8zM313 417
q1 24 6 52.5t14 57.5t22.5 56t32.5 47q22 24 62 45.5t102 21.5t102 -21.5t62 -45.5q24 -26 39.5 -61.5t24.5 -74.5t12.5 -78.5t3.5 -72.5t-3.5 -72.5t-12.5 -78.5t-24.5 -74.5t-39.5 -61.5q-22 -24 -62 -45.5t-102 -21.5t-102 21.5t-62 45.5q-18 20 -32.5 48t-24 59.5
t-15 63.5t-5.5 60h-101v-287h-144v686h144v-269h103z" />
    <glyph glyph-name="afii10049" unicode="&#x42f;" horiz-adv-x="574" 
d="M290 574q-24 0 -39 -6t-24 -14q-8 -8 -16.5 -25t-8.5 -49q0 -30 7.5 -47.5t16.5 -26.5q12 -12 31.5 -18t35.5 -6h65v192h-68zM508 0h-150v270h-68l-98 -270h-164l127 295q-17 6 -33 16.5t-31 29.5q-20 25 -31.5 59t-11.5 76q0 32 7 58.5t17.5 46.5t23.5 35t26 25
q21 16 57.5 30.5t92.5 14.5h236v-686z" />
    <glyph glyph-name="afii10065" unicode="&#x430;" horiz-adv-x="495" 
d="M299 244l-19 -3q-32 -5 -52 -14t-32 -29q-8 -13 -10.5 -26.5t-2.5 -27.5q0 -11 2.5 -21t9.5 -20q15 -20 37 -20q26 0 37.5 15t16.5 29q8 23 10.5 45t2.5 46v26zM54 361q5 32 18 58.5t30 43.5q20 21 58.5 39t101.5 18q29 0 60 -6t59 -25q22 -15 34 -32.5t18 -38.5t7 -46.5
t1 -55.5v-203q0 -29 0.5 -48t2 -31.5t3 -20t3.5 -13.5h-132q-7 25 -7.5 48t0.5 30q-14 -30 -38 -52q-18 -17 -43.5 -27t-57.5 -10q-25 0 -50.5 8.5t-44.5 26.5q-15 14 -27.5 40t-12.5 68q0 27 7.5 54t24.5 49q11 15 25 25.5t28 17.5t27 11.5t23 7.5q29 8 60.5 12t66.5 7v41
q0 13 -2.5 27t-10.5 25q-6 8 -15.5 12.5t-24.5 4.5q-19 0 -29.5 -8.5t-15.5 -17.5q-3 -5 -6 -16t-6 -36z" />
    <glyph glyph-name="afii10066" unicode="&#x431;" horiz-adv-x="493" 
d="M249 90q11 0 24 5t21 14q3 3 6.5 10t7 21t6 38t2.5 61q0 52 -4 82t-18 46q-8 8 -19 14t-25 6q-17 0 -27.5 -6t-16.5 -13q-14 -17 -18.5 -48t-4.5 -81q0 -52 5 -82t17 -46q5 -6 16 -13.5t28 -7.5zM432 587q-31 -11 -51.5 -15.5t-42.5 -9.5q-19 -4 -34.5 -7t-39.5 -8
q-19 -4 -41.5 -9.5t-40.5 -17.5t-29 -29.5t-17 -35t-8 -32.5t-2 -24l3 -1q18 34 50 56q40 27 90 27q42 0 75 -15t54 -35q23 -22 36 -48t19 -52.5t7.5 -51t1.5 -43.5q0 -26 -2.5 -52t-9 -51.5t-19.5 -49t-34 -43.5q-18 -17 -37.5 -27t-38.5 -15t-37.5 -6.5t-34.5 -1.5
q-17 0 -35.5 1.5t-37.5 7t-38 16.5t-37 30q-22 24 -35 54t-19.5 63t-8 66t-1.5 62q0 34 2 76t9 83.5t21 79.5t39 65q32 35 74.5 49t84.5 22q34 6 73 13t92 23v-114z" />
    <glyph glyph-name="afii10067" unicode="&#x432;" horiz-adv-x="493" 
d="M189 80h53q12 0 27 3.5t26 17.5q6 8 10 22.5t4 28.5q0 17 -5 31t-15 23q-8 7 -20.5 11.5t-27.5 4.5h-52v-142zM189 302h39q11 0 26 2.5t26 15.5q7 9 10 23.5t3 23.5q0 16 -4.5 29t-12.5 21q-11 10 -24 11.5t-22 1.5h-41v-128zM289 510q24 0 51.5 -4.5t50.5 -23.5
q15 -13 27.5 -36t12.5 -61q0 -20 -5 -41t-20 -39q-8 -9 -21.5 -19t-33.5 -15v-2q27 -4 45 -15.5t28 -22.5q18 -21 23.5 -44t5.5 -45q0 -23 -8 -53.5t-37 -55.5q-19 -16 -44 -24.5t-51 -8.5h-260v510h236z" />
    <glyph glyph-name="afii10068" unicode="&#x433;" horiz-adv-x="393" 
d="M389 510v-112h-184v-398h-142v510h326z" />
    <glyph glyph-name="afii10069" unicode="&#x434;" horiz-adv-x="485" 
d="M207 386q0 -13 -1 -34t-2.5 -43t-3.5 -42.5t-3 -31.5q-5 -35 -11.5 -64.5t-19.5 -65.5h116v300h-75v-19zM424 510v-405h46v-239h-124v134h-217v-134h-124v239h38q9 20 24 65.5t23 117.5q2 18 3.5 42t2.5 49.5t1.5 49.5t0.5 44v37h326z" />
    <glyph glyph-name="afii10070" unicode="&#x435;" horiz-adv-x="476" 
d="M311 313q1 61 -18 88q-8 11 -21 18t-28 7q-14 0 -27 -6.5t-23 -22.5q-9 -15 -11.5 -35.5t-4.5 -48.5h133zM177 231q-2 -55 2.5 -81t12.5 -38q11 -17 25.5 -22.5t29.5 -5.5q9 0 24 3.5t28 20.5q5 7 8.5 16t6 18.5t3.5 18t1 14.5l127 -8q-5 -27 -18 -60t-36 -58
q-17 -19 -36.5 -30.5t-39.5 -18t-39 -8.5t-35 -2q-15 0 -32.5 2t-36.5 7.5t-38 16.5t-37 29q-34 35 -50 89t-16 116q0 59 15 116t49 94q20 21 55 40.5t91 19.5q62 0 102 -26t64 -67q15 -25 23 -53.5t11.5 -55.5t4 -50.5t-0.5 -36.5h-268z" />
    <glyph glyph-name="afii10072" unicode="&#x436;" horiz-adv-x="660" 
d="M396 314h22q11 0 23 3t18 11q6 7 8 18.5t4 27.5q1 6 2 15.5t2.5 19.5t3 18.5t2.5 12.5q3 14 9.5 28.5t21.5 26.5q12 9 29 15t41 6q25 0 45 -6v-90q-2 1 -12 0.5t-18 -14.5q-4 -8 -5 -15.5t-3 -16.5l-5 -35q-2 -13 -6 -26.5t-18 -24.5q-8 -7 -18.5 -11.5t-18.5 -6.5v-2
q24 -5 36.5 -19t17.5 -25q5 -10 8 -26.5t8 -48.5q2 -13 3.5 -21t5.5 -13q5 -6 15 -9.5t23 0.5v-106l-20 -5t-29 -3t-35.5 3.5t-30.5 11.5q-26 16 -36 43t-13 48q-1 6 -1.5 11.5t-1.5 11.5q-2 13 -3 25.5t-3 26.5q-1 7 -3 14t-6.5 13t-13 10t-22.5 4h-26v-214h-132v214h-26
q-14 0 -22.5 -4t-13 -10t-6.5 -13t-3 -14q-2 -14 -3 -26.5t-3 -25.5q-1 -6 -1.5 -11.5t-1.5 -11.5q-3 -21 -13 -48t-36 -43q-12 -8 -30.5 -11.5t-35.5 -3.5t-29 3l-20 5v106q13 -4 23 -0.5t15 9.5q4 5 5.5 13t3.5 21q5 32 8 48.5t8 26.5q5 11 17.5 25t36.5 19v2
q-8 2 -18.5 6.5t-18.5 11.5q-14 11 -18 24.5t-6 26.5l-5 35q-2 9 -3 16.5t-5 15.5q-8 14 -18 14.5t-12 -0.5v90q19 6 45 6q24 0 41 -6t29 -15q15 -12 21.5 -26.5t9.5 -28.5q1 -4 2 -12.5t2.5 -18.5t3 -19.5t2.5 -15.5q2 -16 4 -27.5t8 -18.5q6 -8 18 -11t23 -3h22v196h132
v-196z" />
    <glyph glyph-name="afii10073" unicode="&#x437;" horiz-adv-x="456" 
d="M25 353q2 29 10.5 51t18 38t18 25t11.5 11q32 29 69 35.5t75 6.5q12 0 28 -0.5t32.5 -3.5t33.5 -9t32 -17q24 -17 40 -47t16 -68q0 -23 -6 -41t-16 -30q-9 -11 -24 -20.5t-33 -14.5v-2q20 -5 35 -14.5t25 -21.5q12 -15 19 -37.5t7 -45.5q0 -35 -15 -69.5t-43 -54.5
q-15 -11 -33.5 -18t-38 -10.5t-39 -4.5t-37.5 -1q-15 0 -33.5 1t-37 5t-36.5 11.5t-32 21.5q-24 23 -35.5 60t-12.5 68l124 11q-1 -11 1.5 -25t7.5 -24q6 -11 19 -20t37 -9q26 0 43 17q11 11 15 23t4 26q0 11 -2.5 23.5t-13.5 23.5q-8 8 -20 13t-27 5h-41v82h41
q20 0 31.5 6.5t16.5 13.5q5 8 8.5 20.5t3.5 20.5q0 17 -5.5 27t-10.5 14q-17 15 -42 15q-20 0 -33 -8t-19 -18q-6 -9 -10 -23.5t-4 -28.5z" />
    <glyph glyph-name="afii10074" unicode="&#x438;" horiz-adv-x="504" 
d="M185 510v-237q0 -4 -0.5 -16.5t-2.5 -47.5q9 20 13.5 31.5t9.5 21.5l114 217v31h132v-510h-132v246q0 12 0.5 24.5t2.5 38.5q-5 -14 -12 -30t-12 -26l-113 -214v-39h-132v510h132z" />
    <glyph glyph-name="afii10075" unicode="&#x439;" horiz-adv-x="504" 
d="M185 510v-237q0 -4 -0.5 -16.5t-2.5 -47.5q9 20 13.5 31.5t9.5 21.5l114 217v31h132v-510h-132v246q0 12 0.5 24.5t2.5 38.5q-5 -14 -12 -30t-12 -26l-113 -214v-39h-132v510h132zM420 701q1 -28 -8.5 -55.5t-28.5 -47.5q-14 -15 -44.5 -30.5t-86.5 -15.5q-48 0 -80.5 13
t-50.5 33t-27.5 48t-9.5 55h110q-1 -11 1.5 -22.5t8.5 -21.5q10 -15 22 -19t26 -4t26 4t22 19q6 10 8.5 21.5t1.5 22.5h110z" />
    <glyph glyph-name="afii10076" unicode="&#x43a;" horiz-adv-x="475" 
d="M195 314h48q11 0 23 3t18 11q5 5 7.5 15t4.5 30q2 15 3.5 33.5t6.5 35.5q3 12 10 26.5t21 26.5q17 14 37 17.5t33 3.5q14 0 26 -2t21 -4v-90q-10 3 -18 -1.5t-13 -12.5q-2 -3 -4 -10t-4 -22l-4 -35q-2 -15 -9 -29t-17 -23q-15 -14 -35 -17v-2q14 -3 23.5 -9t15.5 -12.5
t9 -13t5 -9.5q6 -16 8.5 -31.5t6.5 -45.5q2 -11 3 -19t6 -13q5 -6 15 -9.5t23 0.5v-106q-8 -2 -21.5 -5t-31.5 -3q-17 0 -35 3.5t-31 11.5q-27 16 -37 42.5t-13 48.5q-3 21 -4.5 40t-3.5 35q-2 17 -9.5 29t-35.5 12h-48v-214h-142v510h142v-196z" />
    <glyph glyph-name="afii10077" unicode="&#x43b;" horiz-adv-x="488" 
d="M435 510v-510h-142v405h-79l-1 -67q0 -20 -1.5 -46.5t-3.5 -53.5t-4.5 -53t-5.5 -45q-2 -12 -5.5 -29t-10 -35.5t-17.5 -36t-27 -28.5q-15 -11 -37.5 -16.5t-42.5 -5.5q-18 0 -31.5 3.5t-21.5 7.5v107q18 -3 30.5 1t21 11.5t13 16t7.5 15.5q3 8 6 21t6 34t5 52t4 76
q0 12 0.5 27.5t1 30.5t1 28t0.5 19l1 71h333z" />
    <glyph glyph-name="afii10078" unicode="&#x43c;" horiz-adv-x="614" 
d="M221 510l87 -302l87 302h166v-510h-124v299v39q1 8 1.5 17.5t0.5 31.5q-8 -26 -15.5 -51.5t-10.5 -35.5l-80 -300h-68l-86 300q-3 10 -5 18.5t-4.5 17.5t-6 21t-9.5 30q0 -27 0.5 -37.5t1.5 -21.5v-39v-289h-103v510h168z" />
    <glyph glyph-name="afii10079" unicode="&#x43d;" horiz-adv-x="502" 
d="M307 323v187h142v-510h-142v211h-112v-211h-142v510h142v-187h112z" />
    <glyph glyph-name="afii10080" unicode="&#x43e;" horiz-adv-x="474" 
d="M237 420q-15 0 -25 -7t-15 -15q-4 -6 -7.5 -15.5t-6.5 -26t-4.5 -41t-1.5 -60.5t1.5 -60.5t4.5 -41t6.5 -26t7.5 -15.5q5 -8 15 -15t25 -7t25 7t15 15q4 6 7.5 15.5t6.5 26t4.5 41t1.5 60.5t-1.5 60.5t-4.5 41t-6.5 26t-7.5 15.5q-5 8 -15 15t-25 7zM237 520
q34 0 71 -8.5t72 -45.5q22 -24 34.5 -52.5t19 -57t8 -55t1.5 -46.5t-1.5 -46.5t-8 -55t-19 -57t-34.5 -52.5q-35 -37 -72 -45.5t-71 -8.5t-71 8.5t-72 45.5q-22 24 -34.5 52.5t-19 57t-8 55t-1.5 46.5t1.5 46.5t8 55t19 57t34.5 52.5q35 37 72 45.5t71 8.5z" />
    <glyph glyph-name="afii10081" unicode="&#x43f;" horiz-adv-x="498" 
d="M445 510v-510h-142v398h-108v-398h-142v510h392z" />
    <glyph glyph-name="afii10082" unicode="&#x440;" horiz-adv-x="497" 
d="M195 172q0 -34 6 -49t11 -20q10 -11 22.5 -13.5t20.5 -2.5q13 0 23.5 3.5t21.5 19.5q6 9 9.5 21t6 30t3.5 43t1 59q0 51 -3 84t-17 53q-10 14 -20.5 18.5t-19.5 4.5q-37 0 -53 -33q-8 -16 -10 -34t-2 -32v-152zM187 510v-77q8 21 19.5 36.5t24.5 24.5q14 11 33.5 17
t41.5 6q25 0 49 -9t43 -26q18 -16 31 -39.5t21 -51.5t12 -60t4 -65q0 -31 -3 -63t-10 -62t-18.5 -56t-28.5 -44t-45 -33t-69 -15q-17 0 -31 3.5t-30 11.5q-20 10 -36 29v-209h-142v682h134z" />
    <glyph glyph-name="afii10083" unicode="&#x441;" horiz-adv-x="460" 
d="M302 317q-2 24 -4.5 40.5t-10.5 27.5q-10 15 -22 19t-20 4q-11 0 -24.5 -5.5t-24.5 -24.5q-6 -11 -12.5 -38t-6.5 -86q0 -44 5 -73t16 -50q8 -14 18.5 -21.5t27.5 -7.5q27 0 41 21q7 10 11 27t6 49l133 -8q-1 -11 -3.5 -28t-8.5 -36.5t-15.5 -40t-24.5 -37.5
q-19 -21 -54.5 -40t-90.5 -19q-29 0 -52 5.5t-41 14t-30.5 18.5t-21.5 19q-21 22 -33.5 49t-18.5 54.5t-8 54.5t-2 48t1.5 47t8 54t19.5 56t35 51q18 19 38 31t39.5 18t38 8t35.5 2q15 0 31.5 -1.5t33.5 -7t34.5 -16t34.5 -28.5q28 -29 41 -68.5t14 -76.5z" />
    <glyph glyph-name="afii10084" unicode="&#x442;" horiz-adv-x="398" 
d="M270 0h-142v398h-123v112h388v-112h-123v-398z" />
    <glyph glyph-name="afii10085" unicode="&#x443;" horiz-adv-x="383" 
d="M136 510l69 -312l66 312h129l-154 -518q-13 -43 -25.5 -75t-30.5 -55q-24 -29 -50.5 -38.5t-55.5 -9.5q-39 0 -69 10v116q13 -3 22.5 -3.5t20.5 -0.5q16 0 32 3.5t30 20.5q6 8 10.5 18t6.5 20l-151 512h150z" />
    <glyph glyph-name="afii10086" unicode="&#x444;" horiz-adv-x="652" 
d="M254 412q-29 0 -50 -15t-31 -40q-4 -9 -8 -31t-4 -70q0 -47 4 -70t9 -35q10 -24 30.5 -38.5t49.5 -14.5h11v314h-11zM387 98h11q29 0 49.5 14.5t30.5 38.5q5 12 9 35t4 70q0 48 -4 70t-8 31q-10 25 -31 40t-50 15h-11v-314zM393 510q58 1 101.5 -18.5t67.5 -43.5
q21 -20 33.5 -44.5t19.5 -49.5t9.5 -49t2.5 -45q0 -42 -6.5 -74.5t-16 -56.5t-21 -40.5t-21.5 -26.5q-18 -18 -40.5 -30t-45 -19t-44.5 -10t-39 -3v-164h-134v164q-17 0 -39 3t-44.5 10t-45 19t-40.5 30q-27 27 -46 75.5t-19 123.5q0 20 2.5 44.5t9 49t19.5 49t34 44.5
q24 24 67 43.5t102 18.5v176h134v-176z" />
    <glyph glyph-name="afii10087" unicode="&#x445;" horiz-adv-x="385" 
d="M148 510l54 -118l66 118h124l-132 -226l151 -284h-154l-74 153l-85 -153h-124l151 261l-131 249h154z" />
    <glyph glyph-name="afii10088" unicode="&#x446;" horiz-adv-x="498" 
d="M53 510h142v-398h104v398h142v-398h52v-246h-124v134h-316v510z" />
    <glyph glyph-name="afii10089" unicode="&#x447;" horiz-adv-x="477" 
d="M177 510v-158q0 -13 1.5 -27t13.5 -25q9 -8 19 -10.5t18 -2.5q10 0 23.5 2t29.5 10v211h142v-510h-142v201q-19 -8 -41 -12.5t-51 -4.5q-85 0 -122 43q-22 26 -27.5 60t-5.5 64v159h142z" />
    <glyph glyph-name="afii10090" unicode="&#x448;" horiz-adv-x="710" 
d="M53 510h134v-410h101v410h134v-410h101v410h134v-510h-604v510z" />
    <glyph glyph-name="afii10091" unicode="&#x449;" horiz-adv-x="729" 
d="M53 510h134v-410h101v410h134v-410h101v410h134v-410h52v-234h-124v134h-532v510z" />
    <glyph glyph-name="afii10092" unicode="&#x44a;" horiz-adv-x="525" 
d="M257 100h33q9 0 23 2.5t27 14.5q7 7 13.5 19.5t6.5 33.5q0 12 -3.5 27t-17.5 27q-11 10 -23 12t-24 2h-35v-138zM257 323h64q16 0 33.5 -1.5t35.5 -6.5t36 -14t33 -25q27 -28 34 -60t7 -53q0 -50 -15 -79t-31 -43q-21 -20 -52.5 -30.5t-61.5 -10.5h-225v405h-125v105h267
v-187z" />
    <glyph glyph-name="afii10093" unicode="&#x44b;" horiz-adv-x="667" 
d="M614 510v-510h-138v510h138zM191 100h35q11 0 25 2.5t27 14.5q14 12 17 25.5t3 26.5q0 14 -3.5 28.5t-17.5 26.5q-12 10 -24.5 12t-24.5 2h-37v-138zM191 323h66q32 0 70 -8t68 -39q27 -28 34 -60t7 -53q0 -11 -1.5 -26.5t-6 -32t-13.5 -33t-25 -30.5q-23 -21 -54.5 -31
t-59.5 -10h-223v510h138v-187z" />
    <glyph glyph-name="afii10094" unicode="&#x44c;" horiz-adv-x="463" 
d="M195 100h33q8 0 22.5 2.5t27.5 14.5q14 12 17 26.5t3 25.5q0 23 -7 36t-13 18q-11 11 -24 13t-24 2h-35v-138zM195 323h64q16 0 33.5 -1.5t35.5 -6.5t36 -14t33 -25q27 -28 34 -60t7 -53q0 -50 -15 -79t-31 -43q-21 -20 -52.5 -30.5t-61.5 -10.5h-225v510h142v-187z" />
    <glyph glyph-name="afii10095" unicode="&#x44d;" horiz-adv-x="470" 
d="M297 303q0 18 -3.5 41.5t-11.5 38.5q-11 21 -27 29t-36 8q-13 0 -28 -4t-27 -21q-7 -10 -11.5 -24.5t-6.5 -28.5l-120 13q3 35 17.5 65t36.5 51q16 15 34 25t36 15t36 7t33 2q39 0 81.5 -12.5t77.5 -51.5q20 -23 32 -48.5t18.5 -52t8.5 -52t2 -47.5q0 -21 -2 -48.5
t-8 -56t-18.5 -55.5t-33.5 -49q-18 -19 -39 -30.5t-41.5 -17.5t-40 -7.5t-35.5 -1.5q-34 0 -71 6.5t-67 32.5q-25 21 -40.5 55t-17.5 71l124 13q0 -12 3 -25t9 -24q10 -17 23.5 -23t31.5 -6q20 0 37 7.5t29 33.5q11 22 13 49t2 41h-136v82h136z" />
    <glyph glyph-name="afii10096" unicode="&#x44e;" horiz-adv-x="689" 
d="M458 420q-15 0 -26.5 -6t-19.5 -16q-3 -5 -6.5 -13t-6.5 -23.5t-5 -41.5t-2 -65t2 -65t5 -41.5t6.5 -24t6.5 -12.5q8 -10 19.5 -16t26.5 -6q17 0 28 7t16 15q3 4 6.5 12t6.5 24t5 41.5t2 65.5t-2 65.5t-5 41t-6.5 23.5t-6.5 13q-5 8 -16 15t-28 7zM262 319
q4 39 18.5 79.5t38.5 67.5q16 18 34 29t36 16.5t35.5 7t33.5 1.5t33.5 -1.5t35.5 -7t35.5 -16.5t34.5 -29q21 -23 33.5 -51.5t18.5 -57.5t7.5 -56t1.5 -46q0 -20 -1.5 -46.5t-7.5 -55.5t-18.5 -57.5t-33.5 -51.5q-17 -18 -34.5 -29t-35.5 -16.5t-35.5 -7t-33.5 -1.5
t-33.5 1.5t-35.5 7t-36 16.5t-34 29q-14 15 -24.5 35t-18 42.5t-11.5 46.5t-5 46h-71v-214h-136v510h136v-191h73z" />
    <glyph glyph-name="afii10097" unicode="&#x44f;" horiz-adv-x="483" 
d="M244 416q-22 0 -34.5 -5t-19.5 -12q-12 -12 -14.5 -28.5t-2.5 -29.5q0 -11 2.5 -26.5t14.5 -26.5q11 -11 26.5 -13.5t31.5 -2.5h44v144h-48zM430 0h-138v178h-57l-64 -178h-151l92 209q-10 4 -23 12.5t-26 25.5q-15 20 -22.5 46.5t-7.5 53.5q0 26 7 55t23 51
q15 20 32.5 31.5t35.5 17t34 7t27 1.5h238v-510z" />
    <glyph glyph-name="Acute" unicode="&#xf6c9;" horiz-adv-x="477" 
d="M388 904l33 -99l-215 -67l-30 54z" />
    <glyph glyph-name="Dieresis" unicode="&#xf6cb;" horiz-adv-x="476" 
d="M382 747h-107v118h107v-118zM201 747h-107v118h107v-118z" />
    <glyph glyph-name="Euro" unicode="&#x20ac;" 
d="M495 535q-9 4 -21.5 9.5t-25.5 11t-25 10t-21 7.5q-20 6 -43 10t-40 4q-24 0 -41 -7.5t-28 -27.5q-8 -14 -12.5 -39.5t-4.5 -45.5h237l-31 -86h-210q-1 -33 0 -61h187l-31 -86h-154q0 -8 1 -20.5t2.5 -26t4 -26t5.5 -19.5q19 -42 75 -42q15 0 37 4t52 17q63 26 109 74
v-135q-17 -14 -34 -24t-37 -19q-32 -14 -62.5 -20.5t-69.5 -6.5q-67 0 -119 26.5t-86 96.5q-17 35 -24 69.5t-9 51.5h-72l29 86h37v32t1 29h-67l29 86h46q1 9 4.5 27t10.5 40t17.5 45t26.5 43q21 25 44.5 40t47 22.5t45.5 9.5t40 2q38 0 70 -5.5t67 -14.5q23 -6 43 -12
t42 -14z" />
    <glyph glyph-name="cyrBreve" unicode="&#xf6d1;" horiz-adv-x="458" 
d="M392 890q0 -22 -6 -39t-13 -29t-14.5 -19.5l-10.5 -10.5q-5 -4 -14 -10.5t-23.5 -12.5t-34.5 -10t-47 -4t-47 4t-34.5 10t-23.5 12.5t-14 10.5l-10.5 10.5t-14.5 19.5t-13 29t-6 39h108q-2 -25 12 -40q5 -5 14.5 -10.5t28.5 -5.5t28.5 5.5t14.5 10.5q14 15 12 40h108z
" />
    <glyph glyph-name="cyrbreve" unicode="&#xf6d4;" horiz-adv-x="396" 
d="M343 692q0 -24 -8 -49.5t-23 -42.5t-43 -28.5t-71 -11.5t-71 11.5t-43 28.5t-23 42.5t-8 49.5h107q0 -8 1.5 -19t5.5 -18q6 -11 14.5 -14t16.5 -3t16.5 3t14.5 14q4 7 5.5 18t1.5 19h107z" />
  </font>
</defs>
</svg>
